<svg width="56" height="68" viewBox="0 0 56 68" fill="none" xmlns="http://www.w3.org/2000/svg">
<path d="M16.8602 12.4529L15.7975 9.09075L14.8817 2.17508L17.2858 1.14478L19.7042 3.20694L21.9387 9.09075L24.7268 11.4478L27.9322 12.4529L31.5955 11.4478L34.114 9.09075L36.057 1.60991L38.2915 1.14479L40.6277 1.6099V4.29965L39.3072 9.59508L36.057 19.9338L38.2915 26.6581L40.0669 30.5657L44.4873 36.2403L54.9491 57.422L46.5187 63.558H38.2915L31.1816 66.7521H21.9387L7.92204 61.7929L1.60225 58.1549L11.2184 38.6936L18.4853 26.6581L19.7042 19.1178L16.8602 12.4529Z" fill="#A73AFD"/>
<path d="M45.9652 64.3105C42.1865 64.4516 40.253 63.4101 36.3353 65.2537C35.7801 65.515 35.5368 65.9172 35.036 66.2458C33.4874 67.2618 31.6046 67.8508 29.6097 67.629L29.5319 67.6197C28.8725 67.5452 28.0852 67.243 27.4268 67.3192L27.3549 67.3285C26.5659 67.4249 25.8242 67.7482 25.0339 67.8849C23.1584 68.2092 20.9313 67.8598 19.567 66.692C18.8799 66.1038 18.3059 65.3881 17.4624 64.9379C15.1437 63.7 14.6146 64.4119 12.4173 64.1449C7.85938 63.5911 6.76032 60.5262 2.95317 59.328C2.04417 59.0419 0.581183 58.7731 0.82869 57.6747L0.841277 57.6223C0.919647 57.2757 1.08026 56.9464 1.20369 56.6095L4.98235 47.3448C6.84939 43.2012 8.98523 39.1429 11.6866 35.3237L14.1184 32.1256C15.3186 30.6813 16.5999 29.3312 17.4353 27.7058C19.4484 23.7884 19.5726 18.8084 17.0404 15.0211C15.5759 12.8307 15.406 13.0262 15.3379 10.6085C15.2996 9.25404 15.0055 7.97428 14.6957 6.64888L13.7944 2.31033C13.516 0.690552 15.0567 0.727457 16.4401 0.49299C17.3818 0.333371 18.3439 0.117966 19.2939 0.010035C19.9697 -0.059008 20.6403 0.231459 20.8523 0.781505L20.8727 0.840415C20.9958 1.10095 21.0038 1.34654 21.0501 1.62226L21.2397 2.55988C21.475 3.66696 22.1359 7.23074 22.6229 8.06522C25.3362 12.7149 31.8756 12.4391 34.007 7.80151C34.3948 6.95775 34.6045 6.0579 34.8196 5.17543L35.5578 2.24692C36.0189 0.560184 35.7276 -0.199541 38.0758 0.142818L40.0244 0.447053C40.9559 0.584486 42.3111 0.533962 42.6721 1.44853L42.6999 1.52376C42.8934 2.01106 42.7071 2.58875 42.6187 3.08266L41.7384 6.85807C41.3412 8.53773 41.2693 9.34176 41.2673 11.0829C41.2651 12.8059 40.1436 13.9212 39.2967 15.393C37.6821 18.1986 37.1827 22.071 38.0752 25.1342L38.6724 26.7859C38.9361 27.6138 39.4489 28.5629 40.0096 29.2805L43.073 32.9314C45.0698 35.5785 47.7144 39.3153 49.0995 42.2613L51.6786 47.4932L55.5156 57.2486C56.2022 58.8201 55.2761 58.8339 54.1173 59.3905C50.9897 60.8927 50.761 63.7911 45.9652 64.3105ZM18.4512 2.4532L16.5656 2.70126L17.2985 6.23719C17.4782 6.91063 17.676 7.62607 17.7654 8.31249L17.9885 11.3415C17.9903 12.2489 18.5625 12.695 19.0746 13.4633C19.8748 14.6643 20.5362 15.925 20.8918 17.2707L21.0807 17.932C21.1374 18.1956 21.2005 18.4521 21.2491 18.7187L21.5165 20.5464C21.7442 21.8355 21.5158 23.2855 21.3775 24.5708L33.7829 24.5701C34.2546 24.57 34.7743 24.6045 35.2394 24.5452C34.6048 20.6992 35.3471 16.7559 37.5804 13.3349L38.3155 12.1921C38.7036 11.5626 38.5683 11.1615 38.5676 10.4638C38.5657 8.67612 38.9423 7.16474 39.3864 5.42505L39.9522 2.68269L38.2081 2.4676C38.0305 2.97622 37.9649 3.51221 37.8256 4.02925L37.1798 6.47809C37.0206 7.06325 36.8827 7.68177 36.6564 8.25034C35.5972 10.9107 32.7374 13.2667 29.2952 13.623L29.226 13.6305C27.9713 13.756 26.5583 13.6027 25.3891 13.231C21.1156 11.8726 20.0679 9.24185 19.3119 5.94925L18.7975 3.68073C18.7506 3.44951 18.6823 2.52172 18.4512 2.4532ZM20.67 26.7931C20.1929 27.7795 19.8002 28.7876 19.1915 29.7363C18.2292 31.2362 16.9703 32.6026 15.8236 34.007C11.0024 39.9118 7.9422 46.7147 5.17694 53.4247L3.77245 57.163C5.02863 57.5998 6.27373 58.1321 7.3462 58.8369C8.87241 59.84 9.94421 61.2462 11.9035 61.7077C12.254 61.7902 13.4491 62.029 13.8088 61.9362C13.9389 59.136 14.4438 56.3758 14.9533 53.6095L16.5695 43.4022C17.0468 39.4689 16.9181 37.1981 19.7267 33.6711C21.7713 31.1034 23.267 33.1972 22.6375 34.1102L22.5969 34.1716C22.3205 34.581 21.9409 34.9459 21.6303 35.3383C19.7105 37.7639 19.5359 40.4222 19.2633 43.2357L18.9075 45.9224L16.5293 60.3181C16.5001 60.5589 16.3044 61.8982 16.3503 62.0248C17.917 62.5062 19.4059 63.1903 20.5387 64.2292C21.9358 65.5102 22.5129 66.2075 25.0435 65.5745C26.9556 65.0962 27.0214 64.7488 29.2416 65.2811C30.7694 65.6475 32.2894 65.2057 33.4834 64.4049C34.1536 63.9554 33.9274 62.7373 33.9282 62.0298C33.9328 57.4991 33.5195 52.8222 31.1831 48.653C30.7186 47.824 30.9534 47.4796 30.8994 46.5995L30.5359 43.3801C30.1424 40.5646 29.5292 37.7342 28.0427 35.1613C27.7172 34.5979 27.1632 34.0853 27.2875 33.4214L27.2954 33.3775C27.3418 33.1482 27.5009 32.9943 27.6922 32.8341L27.7661 32.7851C29.4386 31.7148 30.5254 34.2505 30.951 35.1613L32.1112 38.1935C32.3672 38.8674 32.4863 39.6105 32.6316 40.3064L33.5531 46.6584C33.5856 47.427 33.6366 47.8169 33.982 48.5147L34.5719 49.7606C34.7964 50.2718 34.9281 50.814 35.1484 51.322L35.3273 51.8813C36.0416 53.7239 36.4984 57.1771 36.5304 59.2547L36.533 61.4688C36.5328 61.8674 36.5101 62.2762 36.5508 62.6731C38.4259 62.112 40.1633 61.8128 42.1818 61.8292L42.171 61.7819C42.1123 61.5174 42.095 61.2519 42.0559 60.9855L40.8056 53.2953L38.7286 44.6352C37.7798 41.4098 36.7101 38.0952 34.7866 35.1638L34.2197 34.3745C33.0153 32.8578 34.8819 32.0215 35.7862 32.5675L35.9064 32.6416C36.7957 33.2046 38.3525 36.1788 38.7406 37.0236L40.9553 42.9781C40.9703 43.0417 40.9927 43.096 41.017 43.1571L43.6722 54.3306L44.8181 62.1086C45.3233 62.0685 45.8614 62.0509 46.3557 61.9565C48.8918 61.4723 50.2111 58.5814 52.8707 57.4339C52.6375 56.9467 52.4933 56.4327 52.3009 55.9337L50.8901 52.2685C48.2907 45.7322 44.9827 39.513 40.4979 33.7139C38.7095 31.4012 36.6522 29.6718 35.9085 26.817L20.67 26.7931Z" fill="black"/>
</svg>
