<svg width="48" height="68" viewBox="0 0 48 68" fill="none" xmlns="http://www.w3.org/2000/svg">
<path d="M2.81881 10.6465L11.8626 6.75421L21.2498 1.37374L30.1791 2.06061L45.9771 12.936V63.9933H40.1387L37.2767 66.7407H31.0949L23.7683 59.7576L17.472 66.2828L9.91645 66.7407L7.51241 63.9933H2.81881L1.55955 25.2997L2.81881 10.6465Z" fill="#A73AFD"/>
<path d="M24.0567 60.817C24.0369 60.7367 24.0411 60.7123 23.9833 60.651L22.8492 62.6549C20.3583 66.5951 16.4674 68.5386 11.945 67.8632C10.0718 67.5835 8.0835 67.1663 7.16766 65.2634C7.10935 65.1423 7.04912 64.7258 6.97823 64.6526C6.76487 64.4324 3.15973 65.1628 2.1447 64.4462C1.74891 64.1669 1.3204 63.5568 1.24851 63.0621L1.24351 63.0218C1.19678 62.6823 1.21271 62.3301 1.21064 61.9873L1.15205 54.8004C1.14469 54.3821 1.06651 53.9786 1.06394 53.5587L1.04979 47.6923L0.891235 42.4716L0.779765 41.0171L0.604913 35.3825L0.476794 33.7835L0.316377 29.0095L0.300371 23.8307C0.302158 22.2024 0.282436 20.8702 0.421059 19.2481L0.49916 18.1222C0.644429 16.7219 0.890949 15.3374 1.16241 13.9585C2.10755 9.15789 3.53144 9.47986 7.16251 7.96406C9.51854 6.98051 11.9762 5.85412 13.9433 4.1524C14.967 3.26677 15.8979 2.29966 16.9643 1.46129C18.692 0.103144 19.7019 0.213732 21.7682 0.117752C22.3687 0.0898563 22.9533 0.0116279 23.5606 0.00152753C24.5563 -0.0129996 25.299 0.0795787 26.2432 0.131268C28.2712 0.242306 29.2772 -0.0808838 30.9977 1.45898L32.8691 3.24266C35.2398 5.47947 37.9546 6.96531 40.9639 8.1176C43.2302 8.98539 45.2128 9.30781 46.1869 12.0956L46.9587 15.705C47.2518 17.2674 47.4287 19.0899 47.4653 20.6938L47.4551 31.0563C47.4423 31.3354 47.3537 31.5958 47.3392 31.8684L47.3247 34.2651C47.3094 35.0923 47.2292 35.9748 47.1826 36.8121L47.023 41.9308C47.0108 42.2873 46.9356 42.6285 46.9174 42.983L46.8302 47.0728C46.8205 47.2933 46.7742 47.5099 46.7667 47.731L46.7502 51.8716C46.7407 52.196 46.663 52.5089 46.6515 52.832L46.6332 55.811C46.6252 56.1761 46.5531 56.5337 46.548 56.8979L46.5339 62.4844C46.5313 62.7383 46.5519 63.0567 46.454 63.2928C45.8248 64.8099 45.1366 64.7586 43.8021 64.7349C42.8361 64.7178 41.8736 64.7279 40.91 64.6445C40.8158 64.8107 40.7823 64.9608 40.709 65.1291C39.8761 67.0453 38.1009 67.5326 36.2198 67.8393C30.9367 68.7009 26.0705 66.0612 24.0567 60.817ZM23.7356 2.20621L20.5272 2.40681C19.3001 2.51492 18.6723 2.73754 17.6897 3.57843C17.8432 3.7717 17.9578 3.95474 18.073 4.17232L18.2015 4.46353C18.4253 5.01377 18.4811 5.59442 18.6658 6.14821L19.1835 7.95573C19.7682 7.71823 21.121 7.76301 21.7923 7.83598C22.5068 8.49505 21.9509 9.03401 23.1787 9.01262L24.2602 9.0059L25.0744 8.97735C25.3438 8.61546 25.6651 8.26826 25.879 7.86911C26.4292 7.77991 28.1304 7.66533 28.5565 7.93905L29.1314 6.06306C29.3748 5.16465 29.5391 4.31361 30.0644 3.5363C29.9977 3.42358 29.8515 3.32334 29.7499 3.24039C28.7821 2.45078 28.2422 2.33528 27.0345 2.32056L24.7515 2.30341C24.398 2.28543 24.0989 2.17773 23.7356 2.20621ZM31.6082 5.08652C31.5439 5.26588 31.4786 5.44007 31.4404 5.62754L25.8059 29.4605L27.435 27.0943C28.2784 25.7947 29.0107 24.3907 29.6956 22.9965L31.3003 19.5559L34.7279 10.0947C34.9571 9.37369 35.1585 8.6356 35.4462 7.93735C34.7677 7.48066 34.0771 7.09347 33.4221 6.59236L32.2387 5.62673C32.0967 5.50234 31.7836 5.12267 31.6082 5.08652ZM16.1624 5.1136C14.6182 6.3207 14.0329 6.93846 12.2716 7.9164L13.7515 12.246C13.7706 12.317 13.7955 12.3777 13.8214 12.446L14.0429 13.1201C14.0593 13.1868 14.0813 13.2319 14.1065 13.2945L17.1434 21.0286L18.6786 24.175C19.1957 25.179 19.7126 26.164 20.3315 27.1077L21.9616 29.3672L19.2927 17.6174L16.6949 6.97579C16.531 6.35523 16.4148 5.70368 16.1624 5.1136ZM10.4279 8.91523L5.77264 10.837C3.64334 11.6697 3.58432 12.641 3.17359 14.6225L2.89649 16.0915C2.69806 17.2495 2.61224 18.4116 2.51935 19.5811L2.40509 20.6998C2.33985 21.811 2.38865 22.9547 2.38923 24.0693L2.40237 27.7589C2.41724 28.088 2.49005 28.4094 2.5002 28.7452L2.53478 32.2487L2.75643 37.7158C2.77051 38.0075 2.85176 38.2926 2.86269 38.5824L2.88334 41.3779C2.89699 41.7589 2.99567 42.1257 3.0096 42.5061L3.02982 46.4865C3.03804 46.8229 3.12186 47.1475 3.12836 47.4864L3.18352 55.0905C3.18903 55.4645 3.27199 55.8256 3.27534 56.2035L3.28585 62.5825L6.77065 62.4356L6.48262 49.2487C6.47597 48.5553 6.36779 47.87 6.35421 47.1794L6.2511 39.2087C6.23617 38.9643 6.19808 38.7245 6.19101 38.4787L6.17565 33.0179C6.17064 32.6154 6.07861 32.234 6.0701 31.8319L6.06668 22.79C6.08025 22.4672 6.14921 22.1574 6.16778 21.8355C6.21394 21.037 6.08197 20.0929 7.03254 19.8088C7.42712 19.6909 8.08264 20.004 8.21341 20.4216L8.25142 20.5539C8.29737 20.701 8.27408 20.9168 8.27215 21.0728L8.16396 29.9001L8.17182 32.2373C8.1894 32.6981 8.26193 33.1475 8.26822 33.6134L8.33638 41.563C8.3431 41.9222 8.44214 42.2639 8.44671 42.6275L8.45972 47.8048C8.46786 48.0806 8.52846 48.3573 8.54232 48.6348L8.63042 54.8307C8.64079 55.1669 8.72282 55.4902 8.72796 55.8312L8.74125 59.2566C8.75447 59.6422 8.832 60.0197 8.8445 60.4048L8.86058 62.6265C8.87137 64.7241 9.25373 65.0666 11.4072 65.5316C15.4171 66.3976 18.7328 65.055 21.0699 61.4557C21.5523 60.7128 21.964 59.8982 22.4094 59.1288L22.8811 58.3118C22.9742 58.1588 23.1023 57.9937 23.1612 57.8237L22.8801 56.1657C22.7952 55.6944 22.6991 55.2166 22.6438 54.74L22.5011 53.4305C22.4329 52.5688 22.3436 51.7366 22.3404 50.8719L22.3484 41.7513C22.3589 41.1989 22.4489 40.6629 22.4749 40.1142L22.6536 34.5717C22.6896 34.0239 22.7573 33.4921 22.7549 32.9399C18.7973 31.1439 14.5178 20.5044 13.0748 16.6724L10.5295 9.19478C10.5005 9.1089 10.4759 8.98871 10.4279 8.91523ZM37.331 8.93301C37.112 9.50052 36.96 10.1054 36.7688 10.6859L33.2172 20.4808L31.6468 23.8623C30.4025 26.3691 27.5579 31.9681 24.8831 33.0263L24.6992 36.0592C24.6768 36.3902 24.6198 36.7145 24.6092 37.0477L24.4481 42.2481L24.4283 48.2106C24.4266 50.9889 24.545 53.6571 25.0439 56.388L25.4662 58.4106C26.4975 62.4527 29.884 65.9215 34.0962 65.8523C35.3788 65.8312 38.0105 65.5047 38.68 64.3944L38.7929 64.1838C38.9446 63.8941 39.0178 62.1089 39.032 61.5719L39.1884 55.8283L39.2156 51.4937L39.3502 48.211L39.4946 40.0672L39.5075 33.3879C39.5132 33.059 39.6013 32.7435 39.6123 32.4141L39.6239 29.6371L39.5868 21.8101C39.5627 21.4072 39.4085 20.9431 39.5652 20.5499L39.5865 20.4947C39.9517 19.5757 41.1568 19.5475 41.4931 20.4722L41.5342 20.5863C41.6298 20.8571 41.6726 22.0021 41.693 22.4062L41.7048 33.4178C41.6998 33.7993 41.6204 34.1758 41.6154 34.5619L41.6043 38.9957C41.5945 39.3265 41.5031 39.6397 41.4958 39.9748L41.4183 49.9044C41.4122 50.2714 41.3277 50.6301 41.3165 51.0006L41.1752 60.2041C41.1743 60.9531 41.1867 61.6934 41.1145 62.4395L44.456 62.5762L44.4805 54.6885C44.4838 54.3784 44.5433 54.0805 44.5572 53.7729L44.5743 51.8076C44.5817 51.4785 44.6363 51.1549 44.6421 50.8239L44.6614 47.897C44.6738 47.6204 44.74 47.3458 44.7512 47.0639L44.9527 39.9685L45.1728 35.6312L45.2047 32.4942C45.2216 31.9936 45.3284 31.5066 45.3468 31.0096L45.3672 25.2201C45.3715 21.3372 45.3875 18.6691 44.6629 14.7885C44.0037 11.2585 43.4069 11.3573 40.314 10.2171L38.28 9.38313C37.9661 9.24148 37.6288 9.10654 37.331 8.93301ZM24.8565 11.9453L22.6068 11.9685C22.4727 12.1241 22.0227 12.8671 21.9155 12.9206C21.6026 13.0768 20.8349 12.9227 20.4566 12.9704C20.4721 13.1279 20.4831 13.2814 20.5257 13.4339L20.9495 15.4004C21.4076 17.0298 21.6803 18.7418 22.065 20.3957L22.8468 23.8634C22.9329 24.2197 22.9794 24.5999 23.0958 24.9469L23.6688 27.4853L23.7431 27.829C23.7776 27.9651 23.7917 28.0233 23.8855 28.1325L23.928 28.1508C24.0285 27.9993 24.039 27.7867 24.0768 27.6097L27.3094 13.0099L26.4447 12.947C25.5093 12.9111 25.7338 12.5414 25.147 11.9489L24.8565 11.9453Z" fill="black"/>
</svg>
