<svg width="63" height="68" viewBox="0 0 63 68" fill="none" xmlns="http://www.w3.org/2000/svg">
<path d="M14.1716 6.41078L18.5142 4.23569L21.4855 1.83165L29.1422 6.41078L34.9705 4.92256L40.913 1.83165L47.7698 6.41078L54.9694 23.468L59.5406 40.8687L55.6551 45.4478L49.2555 48.7677L51.0839 66.0539H12.1146L14.1716 48.7677L2.40082 40.8687L7.31484 31.0236L14.1716 6.41078Z" fill="#A73AFD"/>
<path d="M12.222 67.9851C9.51899 67.9938 10.2453 65.5051 10.581 63.1535L12.9191 49.8951C8.14029 49.3613 4.90938 47.2484 1.77393 42.8633C1.43515 42.3895 1.02466 41.8852 0.881158 41.2684L0.829826 41.0396C0.585129 39.7182 1.95429 39.0001 2.63167 38.3623C5.06901 36.0677 5.88972 33.075 6.56234 29.5739L9.16157 17.0658C9.60778 14.8213 9.85646 12.6317 10.8577 10.6119C12.2312 7.84125 14.2717 5.60398 16.9144 4.80845L18.0672 4.49587C18.6381 4.35838 18.5182 4.19931 18.8495 3.62882L19.9432 1.89764C20.4904 1.03059 20.8183 0.323231 21.7366 0.0444757C22.8508 -0.0250561 23.5201 1.03174 24.2869 1.84193C28.6697 6.47271 33.7658 6.9655 38.2602 2.56008L39.3787 1.39218C41.2095 -0.637544 41.8561 -0.436802 43.3541 1.92204L44.4787 3.71824C44.8932 4.42854 44.638 4.3722 45.3447 4.53838L46.4812 4.85704C49.3806 5.82922 52.2278 8.96402 53.1489 12.4991L57.5594 33.4036C58.0759 35.219 59.8477 38.2608 61.446 38.9935C62.2241 39.35 62.7829 40.4045 62.3744 41.391L62.3492 41.451C62.0562 42.1976 61.5488 42.8395 61.0925 43.4478C58.1678 47.3476 54.6996 49.586 50.3556 49.848C50.424 50.5855 50.6409 51.383 50.7825 52.1059L52.36 60.8053C52.4373 61.3584 52.514 61.9098 52.5917 62.4636L52.9594 65.825C53.0903 68.3578 51.4285 67.9817 49.8742 67.9786L12.222 67.9851ZM41.2214 4.00328C39.3112 6.07259 37.3402 7.59684 34.8476 8.47395C34.2697 8.67731 33.6549 8.72108 33.0885 8.93103L34.718 11.9994C35.1305 12.7552 35.5296 13.5338 36.0084 14.2321C36.4372 14.948 36.9605 15.9594 37.6543 16.3011C41.6587 15.3869 43.9472 7.80093 41.2214 4.00328ZM22.0812 4.07501C19.2431 7.71506 21.6961 15.3874 25.5393 16.3064C26.2954 15.9386 26.7675 15.0119 27.2282 14.2342L30.1337 8.89847C27.019 8.45991 24.3708 6.57753 22.0812 4.07501ZM45.2514 7.93916C45.0497 9.01648 45.0001 10.129 44.7845 11.2129C44.0693 14.8084 40.6946 20.515 37.1454 19.5738L37.0702 19.5544C36.2689 19.3401 35.689 18.8827 35.1613 18.1349C34.9983 18.5044 35.137 19.869 35.1466 20.3606L35.1652 26.8533C35.166 28.2092 35.2227 29.6019 35.1577 30.9517C34.9168 35.9563 28.5226 36.2754 28.0936 30.9249C27.9906 29.6404 28.0691 28.2658 28.0698 26.973L28.0166 18.3488C26.2476 20.7105 23.0705 19.3919 21.4357 17.5089C19.3686 15.1281 18.1412 11.3851 18.0711 7.96324C15.9873 8.54704 14.444 9.95275 13.3029 12.1706C12.3718 13.9801 12.2155 16.0647 11.7826 18.0844L8.61017 33.2569C7.95022 36.2425 6.40773 39.3156 4.29365 41.0808C5.91513 43.7354 8.79443 45.795 11.461 46.2789L13.5502 46.5473C13.6492 45.6648 13.878 44.8072 14.0499 43.9424C15.111 38.6035 15.3079 35.4594 14.8103 29.895L14.592 27.8284C14.5455 27.4285 14.4776 27.0565 14.4638 26.65C14.4088 25.035 16.697 23.6014 17.2454 27.051C17.3928 27.9778 17.4737 28.9126 17.5367 29.8536L17.7623 33.9367C17.856 37.5355 17.6279 41.3156 16.7272 44.7623L13.4116 62.6037L13.1822 64.6061L50.0775 64.534C50.0198 64.1743 50.01 63.8012 49.9644 63.4376L45.9836 41.8436C45.3591 38.4364 45.3134 34.9308 45.5243 31.4572L45.806 28.3726C45.8846 27.5706 45.9042 26.2871 46.3223 25.6347C46.8022 24.886 47.6833 24.7727 48.2775 25.385C48.9333 26.061 48.7971 27.1656 48.6321 28.0606C48.4321 29.1467 48.3296 30.3759 48.2633 31.494L48.1743 35.5566C48.1762 36.4634 48.1531 37.4666 48.2721 38.3618L49.3228 44.553C49.4266 45.1733 49.5661 45.9406 49.778 46.5177C53.3925 46.393 56.697 44.5994 59.0063 41.1484L58.5194 40.6767C55.2846 37.8247 54.5445 32.8163 53.6274 28.4485L51.4741 18.1028C50.6449 14.0704 50.2025 10.112 46.3584 8.36693C45.9998 8.2042 45.5985 8.12011 45.2514 7.93916ZM31.4177 14.2508L31.3542 14.3215C31.2163 14.4692 31.0128 14.4493 30.8369 14.4678L30.8317 29.0853C30.8312 29.8522 30.5938 31.5105 31.6176 31.5038L31.8417 31.4662C32.5376 31.0014 32.3974 30.6753 32.3973 29.806L32.3986 14.7072C32.0791 14.5585 31.7153 14.4496 31.4177 14.2508Z" fill="black"/>
</svg>
