<svg width="38" height="68" viewBox="0 0 38 68" fill="none" xmlns="http://www.w3.org/2000/svg">
<path d="M2.77628 0.915825H35.4025L34.9446 67.3131L22.0086 66.6263V59.9865L19.0322 44.303L15.4834 67.3131L2.77628 66.6263L1.74598 29.0774L2.77628 0.915825Z" fill="#A73AFD"/>
<path d="M17.0455 61.0369L16.7483 66.993C16.6914 67.5471 16.0745 67.9718 15.5867 67.9837L4.41227 67.9866C3.69317 67.9862 2.29335 68.1918 2.22563 67.0072C2.14374 65.5731 2.20692 64.1057 2.19948 62.6677L2.05214 56.894L1.77703 51.6672L1.71745 48.8656L1.4295 42.4595L0.928447 34.0834C0.915216 33.8799 0.8666 33.6849 0.854073 33.4792L0.66884 28.5417C0.659054 28.1903 0.604563 27.8438 0.601196 27.4911L0.608555 13.1618L0.838257 8.12646L1.54717 1.7887C1.77594 0.0126766 2.09309 0.00127986 3.69592 0.00127986L34.8016 0.000783981C35.4782 -0.00871345 35.9145 0.0566124 36.1633 0.841513L36.1817 0.903205C36.2966 1.22926 36.2879 1.59255 36.3377 1.93554L36.8882 6.21673L37.1294 11.4009C37.1394 11.7575 37.2243 12.0979 37.2342 12.4504L37.2307 29.7456C37.2204 30.0734 37.1411 30.3855 37.1269 30.7071L36.8983 36.6838C36.8825 36.9039 36.835 37.1244 36.8171 37.3444L36.4916 43.0822L36.2604 49.629C36.2506 49.9451 36.1864 50.2538 36.1715 50.5683L35.9495 56.2933C35.9136 57.0885 35.7804 57.944 35.7547 58.6864L35.7331 66.3891C35.7318 67.7176 35.3036 67.9836 34.1821 67.9852L22.2379 67.9823C22.0941 67.9761 21.9526 67.958 21.8224 67.8894L21.7755 67.8635C21.2893 67.6064 21.0192 67.2202 21.019 66.6173L21.0049 63.0816L20.6839 58.3214L19.8844 51.7971L19.2412 47.9522C19.1457 47.3883 19.0288 46.8349 18.9635 46.2651C18.8087 46.8146 18.7534 47.3765 18.6785 47.9424L17.552 55.7819L17.0455 61.0369ZM3.6437 2.24152L3.1013 6.6461L9.54753 6.64296C9.58762 6.57937 9.59192 6.56995 9.59928 6.48943L10.1628 3.38707C10.2421 3.01436 10.2986 2.6248 10.4119 2.26307C10.3498 2.21674 10.1543 2.243 10.0751 2.243L3.6437 2.24152ZM12.6023 2.24234L11.9501 5.08414C11.8391 5.53341 11.762 6.13794 11.7365 6.60282C11.8948 6.68359 24.075 6.61364 25.4411 6.62273L26.2685 6.6034C26.1611 5.65481 25.7314 3.15913 25.372 2.25713C24.9432 2.20204 24.4722 2.24185 24.0395 2.24168L12.6023 2.24234ZM27.5509 2.25143C27.5684 2.4038 27.5824 2.52677 27.6335 2.65627C27.9534 3.46644 28.1759 4.82911 28.2801 5.69322C28.3169 5.99854 28.3171 6.3568 28.4004 6.64734L33.4544 6.62776C33.629 6.62826 34.6866 6.67368 34.7649 6.62273L34.2874 2.24267L27.5509 2.25143ZM2.95514 8.86825C2.90926 8.96124 2.90057 9.02624 2.87982 9.12294L2.86315 9.18489C2.76012 9.63523 2.71346 11.3847 2.80271 11.8606C4.24332 11.8567 5.38408 11.7424 6.55248 10.7248C7.05909 10.2261 7.55623 9.57329 7.81107 8.88807L2.95514 8.86825ZM10.1237 8.86536C9.53563 10.8013 8.2296 12.4849 6.51482 13.4143C5.29992 14.0727 4.02512 14.0695 2.69568 14.0693C2.63141 14.5471 2.66531 15.0637 2.66453 15.5463L2.67415 27.145C2.69294 27.5304 2.76082 27.9129 2.77116 28.3012L2.81625 30.6156C2.85179 31.3356 2.94809 32.0256 2.95247 32.7488L3.58216 43.0547L3.77671 49.3726C3.79276 49.7897 3.86439 50.2037 3.87778 50.6202L4.09974 57.4542C4.11391 57.8234 4.20245 58.1856 4.21419 58.5517L4.22954 63.7087C4.23126 64.376 4.18977 65.0813 4.25091 65.7442L9.89506 65.7458L14.7071 65.7419C14.7825 64.9595 14.73 64.1708 14.7802 63.3884L15.5711 54.8257L16.761 46.4289L17.1404 42.5862C17.355 40.8321 17.3097 39.1808 17.3106 37.413L17.3148 8.87585L10.1237 8.86536ZM19.5898 8.86371L19.4535 8.8979C19.3688 9.135 19.3975 9.51201 19.3908 9.76712L19.3822 22.2246C19.3814 22.7495 19.3483 23.3015 19.4004 23.8228C20.0627 23.5304 20.7315 23.0961 21.1816 22.4922C22.0431 21.3147 22.375 19.0633 22.4034 17.5444L22.5559 14.6008L22.7184 8.87808L19.5898 8.86371ZM25.1365 8.8623L24.898 8.90079C24.7981 9.2626 24.8493 9.74705 24.8344 10.1266L24.6123 15.1081C24.5008 17.4217 24.434 20.9462 23.4299 23.0203C22.68 24.5697 21.0531 25.8839 19.3869 26.0773L19.3801 30.9785C19.3804 31.8077 19.3024 32.7285 19.4159 33.5432L20.2274 41.129L20.9151 45.2314C20.9537 45.4285 20.9553 45.6341 20.9939 45.8302L22.1834 52.9172L22.7898 58.3808C22.8805 59.193 22.9953 60.1778 23.0191 60.9874L23.042 64.2237C23.0433 64.7056 22.9894 65.2754 23.0815 65.7432L33.6632 65.749L35.1409 14.1326C31.734 14.0201 29.5547 13.0206 28.1862 9.68024C28.0789 9.41819 28.0329 9.10866 27.9031 8.86404L25.1365 8.8623ZM30.4883 8.8623L30.2399 8.90013C30.2775 9.11361 30.3811 9.25715 30.4746 9.44412C31.485 11.4629 33.0424 11.8751 35.0261 11.8651L35.1387 11.876C35.1689 11.5379 35.1178 11.1523 35.0942 10.8136L34.9449 8.86982L30.4883 8.8623Z" fill="black"/>
</svg>
