<svg width="49" height="68" viewBox="0 0 49 68" fill="none" xmlns="http://www.w3.org/2000/svg">
<path d="M15.1104 3.20539L20.1475 1.14478L30.7939 1.83165L33.6559 3.20539V10.8754L43.1576 14.5387L45.2182 17.4007L47.1643 40.8687V55.2929L39.8377 56.3232V64.1077L39.0364 67.0842H8.47071L7.55488 56.3232L0.915153 55.2929L2.7468 17.4007L5.72323 14.5387L13.7367 11.4478L15.1104 3.20539Z" fill="#A73AFD"/>
<path d="M10.9462 67.9858C9.29618 67.9851 7.94074 68.2682 7.14394 66.3401C6.87008 65.6773 7.04576 63.6525 7.04619 62.8513L7.05132 56.7113C6.98259 56.6638 6.86601 56.6814 6.78188 56.6795L3.31641 56.6695C2.90094 56.6692 2.44311 56.7097 2.03256 56.6574C0.343145 56.4422 0.00168156 54.9324 -0.000671387 53.4926L0.0543735 40.4351C0.065853 39.9037 0.179793 39.393 0.196406 38.8588L0.231058 35.7378L0.662004 28.1594L1.20974 21.9447C1.38122 18.935 1.93252 15.5795 4.4628 13.7013C5.50672 12.9265 6.70701 12.7833 7.90894 12.3973L13.0237 10.5907C13.2945 10.4951 13.542 10.5975 13.5522 10.2585L13.5783 6.00916C13.579 5.34566 13.497 4.5434 13.6518 3.89884C14.495 0.388054 19.3838 0.0155627 22.3095 0L25.4946 0.00284894C28.306 0.00913914 33.2338 0.297897 34.2779 3.50259L34.2976 3.56523C34.4957 4.10094 34.5008 4.74579 34.5013 5.3168L34.5014 10.3016C34.8361 10.5138 35.2564 10.6166 35.6201 10.7696C37.0917 11.3891 38.6231 11.8904 40.1417 12.3712C43.1028 13.3089 44.7059 13.7617 45.9898 17.2002C46.1159 17.5379 46.1758 17.8987 46.3007 18.2278C46.8993 19.8055 46.7716 22.357 46.992 24.2119L47.3969 28.4935L47.868 37.8251C47.8786 38.1096 47.929 38.3885 47.938 38.6734L47.9488 40.7884C47.9595 41.1015 48.0357 41.407 48.0428 41.7237L48.0595 52.8352C48.0598 53.404 48.1218 54.0659 48.0294 54.6244L48.0188 54.6824C47.9834 54.885 47.9219 55.0654 47.8488 55.2559L47.7934 55.3993C47.2702 56.5137 46.283 56.6656 45.2286 56.6676L40.1141 56.6731C40.0731 56.8455 40.1042 57.0593 40.1065 57.2385L40.1089 64.809C40.1086 65.1445 40.1316 65.5036 40.0882 65.8358C39.8248 67.8495 38.2578 67.9841 36.6353 67.985L10.9462 67.9858ZM22.8181 1.72901L21.2376 1.75525C20.6704 1.78087 20.0762 1.86453 19.5152 1.95867C17.9674 2.21846 14.6629 3.0259 15.3252 5.29896C15.8696 7.1673 18.4161 8.12593 20.0969 8.38782C20.3612 8.42897 20.7358 8.40787 20.9788 8.49535C21.8884 8.82288 21.7891 10.0972 21.0516 10.2468C20.8335 10.2909 20.5572 10.2406 20.3353 10.2232C18.8292 10.1047 16.2687 9.3352 15.231 8.08226L15.2675 10.5214C15.269 11.2567 15.5038 11.3797 15.9852 11.8863C16.6639 12.6003 17.3711 13.2696 18.2195 13.7594C18.634 13.9987 19.1366 14.2314 19.1694 14.7951C19.1972 15.2731 18.7363 15.7575 18.2743 15.736L18.0817 15.7036C16.8921 15.4329 14.7685 13.2561 14.1746 12.2541L14.0902 12.1047L8.38259 14.1226C7.46309 14.4276 6.42494 14.547 5.59906 15.0849C4.10593 16.0572 3.32404 18.1572 3.06222 19.898C2.89695 20.9971 2.9768 22.0995 2.84618 23.1944L2.19541 30.2987L1.88532 36.7453C1.86079 37.4551 1.77801 38.2308 1.76247 38.8909L1.7475 48.1447C1.7475 48.458 1.69901 48.8783 1.76682 49.1793L7.46138 49.187C7.5063 48.4591 7.48341 47.7195 7.48362 46.99L7.49168 28.6802C7.49261 27.8701 7.17674 26.2074 8.46302 26.3576L8.60947 26.3916C8.79493 26.4472 8.952 26.6137 9.0407 26.7873L9.09133 26.8906C9.14345 26.9942 9.14623 27.1022 9.14944 27.2162L9.1438 45.9316C9.13446 46.3668 9.06188 46.7999 9.05881 47.2409L8.99628 53.5453C8.90316 55.2311 8.59892 56.9011 8.70152 58.6007L22.4551 58.5642C22.5113 58.353 22.4862 58.0679 22.4869 57.8462L22.49 10.9199C22.4909 10.2149 22.6137 9.74044 23.349 9.65067L23.3879 9.66088C23.6214 9.72556 23.7899 9.82828 23.9617 10.0034L23.9903 10.0323C24.2462 10.3007 24.128 10.9094 24.128 11.249L24.1272 57.6015C24.1277 57.9217 24.1078 58.2597 24.1509 58.5768L38.4416 58.5772L38.4502 56.5179C38.4484 55.9995 38.2912 55.1658 38.7213 54.7749L38.7317 27.8421C38.7318 27.5777 38.7084 27.286 38.7407 27.0244C38.8218 26.3657 39.7022 26.062 40.1199 26.5782L40.2542 26.7629C40.3158 26.8526 40.3257 26.9381 40.3445 27.0425L40.3587 27.1163C40.3878 27.283 40.3728 27.475 40.3742 27.6444L40.3792 47.1031C40.3794 47.4022 40.3252 47.8619 40.41 48.1351L45.658 48.1363C45.7452 48.137 46.3064 48.1756 46.3448 48.1393L46.3266 38.9384C46.3122 38.214 46.1936 37.4813 46.1648 36.7553L46.1218 34.9788L45.8152 29.5665L45.1782 23.3244C45.0419 22.1337 45.1665 20.9401 44.9181 19.7542C44.5166 17.8373 43.8217 15.6617 41.9433 14.8342C41.4093 14.599 40.8053 14.4624 40.2498 14.2842L34.4077 12.2507C34.2848 12.2038 34.1449 12.1292 34.0151 12.1139C33.3867 13.1475 31.4014 15.3214 30.2323 15.6933C29.4584 15.9395 28.8465 14.9824 29.3061 14.3042C29.5545 13.9379 30.0688 13.6624 30.4219 13.405C31.1125 12.9016 31.7722 12.325 32.3037 11.641C32.8804 10.899 32.7608 10.9055 32.7732 9.95504C32.7808 9.37568 32.8285 8.77063 32.7973 8.19445L32.7949 8.15442C31.595 9.24284 29.0135 10.4159 27.3364 10.2634C26.4383 10.1818 26.1762 8.63447 27.7724 8.4246C29.4357 8.206 32.3874 7.19964 32.7488 5.20135L32.7746 5.01139C32.8129 4.71878 32.7754 4.41315 32.6725 4.13875L32.6524 4.08384C32.0192 2.39564 29.1985 2.03011 27.7304 1.87448L26.881 1.76818C25.5441 1.67013 24.157 1.70273 22.8181 1.72901ZM40.3961 49.929L40.3796 52.997C40.3792 53.5962 40.3306 54.2486 40.395 54.8427L45.0269 54.8463C45.2792 54.8458 46.0094 54.9241 46.2073 54.7509L46.2573 54.6995C46.4283 54.3394 46.3405 50.6253 46.3402 49.9404L40.3961 49.929ZM1.75391 50.9751L1.747 53.4259C1.74721 55.4046 1.72447 54.8452 3.88105 54.8464L7.15977 54.8674L7.19578 54.696L7.33353 51.0033L1.75391 50.9751ZM8.78516 60.3698L8.68241 60.4045C8.69161 61.0441 8.62908 65.6896 8.76006 65.9035C8.85382 66.0566 8.99151 66.1726 9.16548 66.1816L37.74 66.1803C37.8398 66.1766 37.9455 66.1746 38.0384 66.1336C38.4614 65.8521 38.4573 65.5851 38.4582 65.111L38.4347 60.4161C38.2701 60.3449 37.9943 60.3713 37.8119 60.371L8.78516 60.3698Z" fill="black"/>
</svg>
