<svg width="69" height="68" viewBox="0 0 69 68" fill="none" xmlns="http://www.w3.org/2000/svg">
<path d="M12.0915 15.9125L15.5259 11.9057L22.1656 9.27273V5.72391L23.8828 1.83165L26.7447 5.72391L30.637 11.9057H37.9636L43.2296 5.72391L44.1454 1.83165L46.7784 3.43434L48.3811 9.27273L55.3643 13.5084L68.6437 61.8182L62.9198 62.963L59.9434 58.1549L57.5393 53.8047L56.1656 49.4545L54.9064 45.5623L50.3272 34.9158L50.7851 64.5657L45.5191 66.2828H23.8828L17.9299 61.8182V54.3771L19.4181 49.6835V33.6566L12.0915 51.1717L9.6875 57.468L6.25315 62.5051L1.44507 61.8182L12.0915 15.9125Z" fill="#A73AFD"/>
<path d="M51.9111 63.8051C50.5906 67.0728 46.4926 67.9768 43.4933 68L25.7281 67.9984C25.2795 67.9926 24.7996 68.0038 24.3579 67.9122L22.2456 67.5879C20.5343 67.1871 18.6759 66.0312 17.7336 64.4433C16.3846 62.17 16.5954 58.8031 16.8992 56.2065L18.4251 43.5912L18.3033 37.1755C18.1262 37.6504 17.9962 38.1989 17.829 38.6936L14.1339 50.1302C13.0917 53.3801 11.9276 57.2655 9.36757 59.5694C9.14495 59.7698 8.9706 59.8251 8.87621 60.1246L8.04203 62.9119C7.69575 64.1005 7.11605 64.1432 6.14257 64.0442C5.04207 63.9322 1.78339 63.3802 0.851283 62.6558C-0.180999 61.8537 0.484622 60.7838 0.860783 59.8378C1.08893 59.2639 1.29627 58.6749 1.56233 58.1188C2.21543 56.754 1.6973 57.6544 1.50758 56.1997L1.49894 56.1292C1.28306 54.4528 1.92717 51.8936 2.39945 50.2523L6.7202 36.7871L9.46887 26.13C9.73009 25.0191 9.97283 23.8773 10.091 22.7389L10.3365 19.3787C10.7271 15.3312 12.8991 11.5812 16.4885 9.91364C17.334 9.52088 18.2423 9.24105 19.1257 8.96141L21.2683 8.30963L21.1973 7.81873C20.9471 5.53574 21.4627 0.344101 24.3256 0C25.7693 0.0709382 26.9403 1.63386 27.19 3.07353L27.9043 6.04153C29.2046 9.79468 32.9356 12.7272 36.7455 11.1714C39.2929 10.1311 40.9904 7.6763 41.6926 4.94796C41.9333 4.01299 41.9864 3.07408 42.3662 2.17617C43.6167 -0.780777 46.4512 -0.674141 47.4423 2.54236C47.9313 4.12902 48.4134 6.5852 48.0373 8.27083L48.0211 8.33903C48.5393 8.55121 49.1471 8.65054 49.6868 8.80456C55.6484 10.5061 58.5131 13.5936 59 20.4824L59.3383 23.9118C59.4357 24.5853 59.6127 25.2482 59.7596 25.9093L60.1996 27.9221C60.3422 28.5605 60.5605 29.1941 60.6852 29.8362L61.0319 31.2008C61.0741 31.4397 61.163 31.6623 61.2096 31.9016L64.8237 44.0818C65.0021 44.7705 65.2949 45.455 65.5287 46.1277L66.6156 49.3904L67.473 52.8422C67.8635 54.1608 67.9462 56.0238 67.4415 57.2971C67.3721 57.4722 67.5519 57.7393 67.6181 57.9133L68.664 60.424C68.7672 60.7031 68.9202 60.9173 68.965 61.223L68.9741 61.2914C69.2666 63.4101 64.5735 64.0222 63.1949 64.0386C62.086 64.0518 61.5781 63.7193 61.1936 62.5909L60.7172 60.9904C60.4453 60.0273 60.4466 60.0261 59.7364 59.3627C56.123 55.9876 54.4534 47.6627 52.9519 42.9279C52.3361 40.986 51.457 39.102 50.9836 37.1181C50.7337 38.2426 50.8306 39.5891 50.8277 40.7386L50.8673 44.0593C50.8843 44.3716 50.9413 44.68 50.9693 44.9915L52.4481 57.4163C52.6346 59.5257 52.7664 61.8313 51.9111 63.8051ZM44.7815 2.65548L44.7578 2.69337C44.4673 3.17661 44.3836 3.96533 44.27 4.52708L43.899 6.05979C42.8935 9.68284 40.2219 12.9676 36.6668 13.867C31.419 15.1947 26.8442 11.2419 25.4109 6.02792L25.006 4.4272C24.8703 3.81761 24.761 3.18099 24.4824 2.62462C23.6538 3.8418 23.4848 5.95598 23.5438 7.39154C23.6258 9.42995 27.2983 12.8824 28.728 13.945L31.1186 15.5504C32.2793 16.3204 33.4721 17.1184 34.7019 17.7606C35.3701 17.3749 35.9777 16.8905 36.6294 16.4769L39.3604 14.7938C41.2789 13.5142 44.8621 10.3134 45.6085 7.92792L45.6328 7.85661C45.9631 6.85407 45.5715 3.34533 44.8429 2.65859L44.7815 2.65548ZM22.3026 10.644C21.6355 10.8866 20.9316 11.0477 20.25 11.2438L18.5869 11.8154C14.2284 13.3919 12.9477 16.3629 12.6183 20.8435C12.3882 23.9737 11.7395 26.9437 10.9928 29.9798L9.87853 34.3381L6.59386 45.217C6.13869 46.5809 3.15954 54.9294 3.88397 56.1376C4.39035 56.9822 7.14558 57.4947 7.95982 57.4593C9.64537 55.8046 10.6293 53.1547 11.3898 50.9302L14.8618 39.8242L17.3515 32.865C17.7325 31.6586 17.8042 28.9316 19.0851 29.0169C19.9786 29.0765 20.2147 29.8232 20.2506 30.6377L20.6736 37.1864C20.6955 37.547 20.7705 37.9017 20.7873 38.2615L20.8096 41.6647C20.8075 42.5581 20.8285 43.4718 20.7601 44.3618L19.5244 54.6253C19.2807 56.2197 19.0464 57.8033 19.0515 59.422C19.0696 65.3014 22.6948 65.4701 27.0646 65.4755L39.7393 65.4746C42.4926 65.4736 46.191 65.8849 48.5642 64.0966C50.2696 62.8115 50.2328 60.8312 50.2262 58.8606C50.1921 57.7396 50.0363 56.6363 49.8984 55.5266L48.5744 44.2365C48.4808 43.1459 48.4848 42.0933 48.4846 40.9953L48.4966 37.8507L48.9617 31.4351C48.9869 30.8977 48.8454 30.1657 49.1318 29.6934L49.1707 29.6273C49.6966 28.7567 50.753 28.8339 51.144 29.7434L51.1656 29.7925C51.2097 29.8959 51.2267 29.9914 51.2444 30.1025L51.278 30.2524C51.584 31.4102 51.7216 32.234 52.1145 33.4382L55.773 43.9373L58.0445 51.4312C58.3557 52.2368 58.6161 53.0485 58.9676 53.8392C59.2556 54.4868 60.73 57.1984 61.3427 57.4877C61.7414 57.4651 62.1363 57.3661 62.5268 57.2838C65.7392 56.6066 65.824 56.4157 65.1942 53.4818C64.5222 50.3515 63.3815 47.4175 62.4055 44.3888L59.1035 33.2656L57.9511 28.6068C57.5832 27.0497 57.2107 25.4865 56.9764 23.899C56.3398 19.5853 57.0179 16.5031 53.4492 13.268C52.3999 12.3169 48.554 10.877 46.9713 10.6133L45.8759 12.1396C43.5699 15.1702 40.7234 16.9035 37.6145 18.8592C34.6936 20.6966 35.3425 21.0335 32.4432 19.3422C29.2029 17.452 25.7065 15.3391 23.3937 12.1959C23.2112 11.9479 22.4839 10.7189 22.3026 10.644ZM65.453 58.9739L64.7321 59.3353C64.1055 59.5997 63.4836 59.6799 62.8248 59.7878L63.3543 61.4968C63.4557 61.5202 63.5179 61.517 63.6196 61.4955C64.481 61.3842 65.4619 61.2186 66.2747 60.8886L65.453 58.9739ZM3.84753 59.0317L3.83242 59.0796C2.97276 61.7367 2.22268 60.5971 5.78826 61.5357L5.91917 61.5424C6.05622 61.3297 6.12634 60.9814 6.19102 60.7317L6.47141 59.7739C5.84145 59.6708 5.24855 59.5449 4.64052 59.3395C4.42248 59.2659 4.06177 59.0264 3.84753 59.0317Z" fill="black"/>
</svg>
