<svg width="91" height="90" viewBox="0 0 91 90" fill="none" xmlns="http://www.w3.org/2000/svg">
<path d="M76.6399 28.232L72.4143 23.1055C71.8341 22.4017 71.4812 21.5503 71.3947 20.6432L70.7575 14.0302C70.4265 10.5942 67.6923 7.86001 64.2563 7.52905L57.6433 6.89253C56.7362 6.80533 55.8848 6.45239 55.181 5.87286L50.0545 1.64658C47.391 -0.548616 43.5245 -0.548616 40.861 1.64658L35.7346 5.87286C35.0314 6.45239 34.18 6.80533 33.2723 6.89253L26.6592 7.52905C23.2232 7.86001 20.4897 10.5942 20.1581 14.0302L19.5216 20.6432C19.4344 21.5503 19.0814 22.4017 18.5019 23.1055L14.2756 28.232C12.0804 30.8955 12.0804 34.762 14.2756 37.4255L18.5019 42.5519C19.0814 43.2557 19.4344 44.1072 19.5216 45.0142L20.1581 51.6273C20.489 55.0632 23.2232 57.7968 26.6592 58.1284L30.7015 58.5177L21.0974 81.4674C20.8372 82.0922 20.9546 82.7954 21.4043 83.3021C21.8541 83.8082 22.5373 84.0087 23.1869 83.824L31.5193 81.4715C31.5557 81.4612 31.5907 81.477 31.6072 81.5065L35.7799 89.0939C36.0902 89.659 36.6705 89.9996 37.309 89.9996C37.3392 89.9996 37.3695 89.9989 37.4004 89.9976C38.0753 89.9632 38.659 89.5554 38.9261 88.9264L49.0657 64.6948C49.4097 64.497 49.7407 64.2697 50.0552 64.0109L55.1817 59.7853C55.8305 59.2497 56.6071 58.9112 57.4359 58.7931L66.6197 80.7375L60.1207 78.9028C58.8847 78.5547 57.5904 79.0964 56.9704 80.2205L53.7164 86.1373L49.4049 75.8342C49.12 75.1537 48.3386 74.8337 47.6581 75.118C46.9783 75.4023 46.6577 76.1844 46.9426 76.8641L51.9929 88.9333C52.2572 89.5554 52.8402 89.9632 53.5159 89.9976C53.5468 89.9989 53.577 90.0003 53.6072 90.0003C54.2458 90.0003 54.826 89.659 55.1363 89.0939L59.3084 81.5079C59.3255 81.477 59.3612 81.4626 59.3963 81.4715L67.7273 83.824C68.3782 84.008 69.0621 83.8082 69.5112 83.3021C69.9609 82.7954 70.0784 82.0929 69.8174 81.466L60.2141 58.5171L64.2563 58.1277C67.6923 57.7968 70.4265 55.0632 70.7575 51.6273L71.3947 45.0135C71.4812 44.1065 71.8341 43.2557 72.4143 42.5519L76.6399 37.4255C78.8358 34.762 78.8358 30.8955 76.6399 28.232ZM37.1999 86.1373L33.9452 80.2191C33.3258 79.0957 32.0301 78.554 30.7949 78.9028L24.2965 80.7368L33.4796 58.7931C34.3091 58.9112 35.0857 59.2497 35.7346 59.7846L40.861 64.0109C42.1931 65.1088 43.8253 65.6575 45.4581 65.6575C45.5632 65.6575 45.6675 65.6547 45.7726 65.6499L37.1999 86.1373ZM74.5807 35.7281L70.3551 40.8546C69.435 41.9697 68.876 43.3196 68.7373 44.7581L68.1008 51.3712C67.8921 53.5382 66.1679 55.2624 64.0009 55.4711L58.1919 56.0307C58.1692 56.0321 58.1459 56.0342 58.1232 56.0376L57.3878 56.1083C55.9486 56.247 54.5987 56.8059 53.4836 57.7254L48.3571 61.951C46.6776 63.3359 44.2386 63.3359 42.5591 61.951L37.4326 57.7254C36.3175 56.8059 34.9676 56.2463 33.5284 56.1083L32.7896 56.0369C32.769 56.0342 32.749 56.0328 32.7284 56.0314L26.9153 55.4711C24.7483 55.2624 23.0241 53.5382 22.8154 51.3712L22.1789 44.7588C22.0402 43.3196 21.4812 41.9697 20.5611 40.8546L16.3355 35.7281C14.9506 34.0479 14.9506 31.6089 16.3355 29.9294L20.5611 24.8029C21.4812 23.6878 22.0402 22.3379 22.1789 20.8987L22.8154 14.2856C23.0241 12.1186 24.7483 10.3944 26.9153 10.1857L33.5284 9.54915C34.9676 9.41045 36.3175 8.85152 37.4326 7.93211L42.5591 3.70651C43.3989 3.01437 44.4288 2.66762 45.4581 2.66762C46.4874 2.66762 47.5173 3.01369 48.3571 3.70651L53.4836 7.93211C54.5987 8.85152 55.9486 9.41113 57.3878 9.54915L64.0009 10.1857C66.1679 10.3944 67.8921 12.1186 68.1008 14.2856L68.7373 20.8987C68.876 22.3379 69.435 23.6878 70.3551 24.8029L74.5807 29.9294C75.9649 31.6096 75.9649 34.0479 74.5807 35.7281Z" fill="#A73AFD"/>
<path d="M45.4581 11.9805C44.5669 11.9805 43.6701 12.0368 42.7912 12.1494C42.0606 12.2428 41.5436 12.9116 41.637 13.6422C41.7304 14.3735 42.3998 14.8898 43.1297 14.7971C43.896 14.6989 44.6795 14.6495 45.4581 14.6495C55.4824 14.6495 63.6377 22.8048 63.6377 32.8291C63.6377 42.8533 55.4818 51.0079 45.4581 51.0079C35.4339 51.0079 27.2786 42.8527 27.2786 32.8284C27.2786 25.6784 31.4946 19.1656 38.0191 16.2357C38.6913 15.9342 38.992 15.1439 38.6899 14.4717C38.3878 13.7988 37.5975 13.4987 36.9259 13.8008C29.4436 17.1606 24.6096 24.6292 24.6096 32.8284C24.6096 44.3248 33.9624 53.6769 45.4581 53.6769C56.9539 53.6769 66.3067 44.3248 66.3067 32.8284C66.3067 21.3326 56.9539 11.9805 45.4581 11.9805Z" fill="#A73AFD"/>
<path d="M32.2038 31.2827C30.6129 32.8737 30.6129 35.463 32.2038 37.054L38.0327 42.8836C38.8038 43.654 39.8283 44.0783 40.9187 44.0783C42.0084 44.0783 43.0336 43.654 43.8047 42.8836L56.5288 30.1587C58.1198 28.5671 58.1198 25.9784 56.5288 24.3868C54.9379 22.7958 52.3486 22.7958 50.7569 24.3868L40.9187 34.2257L37.9751 31.2827C36.3841 29.6918 33.7948 29.6918 32.2038 31.2827ZM40.9187 37.4481C41.2723 37.4481 41.6115 37.3073 41.8621 37.0567L52.6445 26.2744C53.1952 25.7237 54.0906 25.7244 54.6412 26.2744C55.1919 26.8251 55.1919 27.7211 54.6412 28.2711L41.9171 40.996C41.6507 41.2624 41.2957 41.4093 40.9187 41.4093C40.541 41.4093 40.1867 41.2624 39.9203 40.996L34.0907 35.1671C33.5407 34.6164 33.5407 33.7203 34.0907 33.1703C34.3661 32.895 34.7279 32.757 35.0898 32.757C35.451 32.757 35.8128 32.895 36.0875 33.1696L39.9746 37.0567C40.2252 37.3073 40.5644 37.4481 40.9187 37.4481Z" fill="#A73AFD"/>
</svg>
