<svg width="91" height="90" viewBox="0 0 91 90" fill="none" xmlns="http://www.w3.org/2000/svg">
<path d="M63.2147 44.3001C62.9789 43.7569 62.8167 43.184 62.7323 42.5974C62.513 41.0735 62.0916 39.583 61.48 38.1673C61.1915 37.4993 60.4163 37.1913 59.7474 37.4802C59.0791 37.7689 58.7716 38.5446 59.0603 39.2128C59.5794 40.4144 59.9371 41.6796 60.1232 42.9728C60.2411 43.7914 60.4676 44.591 60.7964 45.3491L63.6574 51.9463C64.8658 54.7324 64.4798 57.8313 62.6251 60.2361C61.0449 62.2848 58.7058 63.4257 56.1923 63.4352C56.9209 61.9003 57.3302 60.1855 57.3302 58.3764V46.2473C57.3302 44.7773 56.1789 43.5953 54.7091 43.5564L47.2521 43.36C44.709 43.2928 42.222 42.3718 40.2488 40.7666L39.758 40.3672C39.3 39.9944 38.7246 39.8243 38.1373 39.8865C37.5502 39.9493 37.0237 40.2376 36.6548 40.6986C34.7201 43.1159 33.6546 46.1521 33.6546 49.248V58.3764C33.6546 60.1855 34.0639 61.9001 34.7925 63.4352C32.2792 63.4259 29.9399 62.285 28.3599 60.2361C26.505 57.8313 26.1191 54.7326 27.3274 51.9463L30.1884 45.3493C30.5172 44.591 30.7437 43.7914 30.8617 42.9728C31.368 39.4542 33.1266 36.2342 35.8132 33.9064C38.4999 31.5786 41.9374 30.2966 45.4922 30.2966C49.5096 30.2966 53.2687 31.8823 56.077 34.7617C56.5851 35.2831 57.4196 35.2931 57.9407 34.7851C58.4618 34.277 58.4723 33.4423 57.9641 32.9214C54.6555 29.5288 50.2262 27.6606 45.4921 27.6606C41.3032 27.6606 37.2527 29.1712 34.087 31.9141C30.9212 34.657 28.849 38.4511 28.2523 42.5973C28.168 43.184 28.0058 43.7569 27.7699 44.3001L24.9089 50.8973C23.3131 54.577 23.8227 58.6699 26.2725 61.846C28.368 64.5629 31.4725 66.077 34.808 66.0769C35.3373 66.0769 35.8733 66.0371 36.4112 65.9596C37.3411 67.0712 38.4709 68.0093 39.7446 68.7199V71.2635L33.0056 73.9671C28.284 75.8615 25.233 80.3732 25.233 85.4608V88.6818C25.233 89.4099 25.823 89.9998 26.551 89.9998C27.2791 89.9998 27.869 89.4099 27.869 88.6818V85.4608C27.869 81.4561 30.2707 77.9048 33.9873 76.4137L40.0532 73.9801C40.8108 76.1585 42.8834 77.7266 45.3165 77.7266C47.7496 77.7266 49.8222 76.1583 50.5798 73.9801L56.6464 76.414C56.8056 76.4778 56.9738 76.5518 57.1759 76.6469C57.3573 76.7321 57.5481 76.7725 57.7361 76.7725C58.2308 76.7725 58.7051 76.4926 58.9297 76.0151C59.2396 75.3564 58.9566 74.5712 58.298 74.2614C58.0482 74.144 57.8351 74.0505 57.6275 73.9672L50.8886 71.2635V68.9071C52.3062 68.1776 53.5591 67.1724 54.5734 65.9596C55.1115 66.0373 55.647 66.0769 56.1767 66.0769C59.512 66.0769 62.6169 64.5627 64.7122 61.846C67.1618 58.6701 67.6716 54.5772 66.0757 50.8973L63.2147 44.3001ZM48.2525 72.1551C48.2525 73.7738 46.9356 75.0907 45.3167 75.0907C43.6978 75.0907 42.3808 73.7738 42.3808 72.1551V69.7961C43.373 70.0668 44.4157 70.214 45.4924 70.214C46.4428 70.214 47.3663 70.0984 48.2525 69.8858V72.1551ZM45.4924 67.578C40.4187 67.578 36.2909 63.4503 36.2909 58.3766V49.2482C36.2909 46.8961 37.0525 44.5869 38.4438 42.6965L38.5853 42.8117C41.0076 44.7822 44.0609 45.9127 47.1826 45.9951L54.6395 46.1916C54.6702 46.1925 54.6943 46.2171 54.6943 46.2475V58.3766C54.694 63.4503 50.5661 67.578 45.4924 67.578Z" fill="#A73AFD"/>
<path d="M61.2848 77.9919C60.6906 78.4125 60.5499 79.2351 60.9706 79.8291C62.144 81.4868 62.7642 83.4341 62.7642 85.4609V88.682C62.7642 89.4101 63.3541 90 64.0822 90C64.8103 90 65.4002 89.4101 65.4002 88.682V85.4609C65.4002 82.8855 64.6126 80.4115 63.122 78.3062C62.7014 77.7118 61.8788 77.5712 61.2848 77.9919Z" fill="#A73AFD"/>
<path d="M20.5788 19.7387C17.6428 17.7325 13.9702 17.357 10.5022 18.7099C7.97252 19.6965 5.94997 21.7062 4.95249 24.2235C4.30349 25.8619 4.03567 27.5374 4.15711 29.2035C4.21018 29.9295 4.83931 30.4757 5.56739 30.4224C6.29336 30.3695 6.83902 29.7381 6.7863 29.0121C6.69403 27.7453 6.90158 26.4608 7.40331 25.1946C8.13191 23.3557 9.61073 21.8874 11.4604 21.1659C14.1041 20.1346 16.8859 20.4077 19.0917 21.9152C21.2476 23.3882 22.5346 25.8241 22.5346 28.431C22.5346 30.0671 22.0381 31.6357 21.099 32.968C21.0881 32.9834 21.0775 32.9992 21.0672 33.0151L16.6388 39.9092C16.5024 40.1218 16.4298 40.3689 16.4298 40.6216V41.2219H15.9675V34.6236C17.3062 34.5034 18.3592 33.3765 18.3592 32.007V29.8442C18.3592 28.3949 17.18 27.2158 15.7307 27.2158H13.568C12.1187 27.2158 10.9395 28.3949 10.9395 29.8442V32.007C10.9395 33.3764 11.9927 34.5034 13.3312 34.6236V41.2221H12.8689V40.6218C12.8689 40.3691 12.7963 40.122 12.6599 39.9094L8.62995 33.6354C8.23665 33.023 7.42123 32.8455 6.80861 33.2388C6.19635 33.6321 6.01868 34.4477 6.41198 35.0601L10.2328 41.0086V41.9528C10.2328 42.3298 10.3443 42.6806 10.5339 42.9767V44.3414C10.5339 46.4617 12.2589 48.1869 14.3795 48.1869H14.919C17.0395 48.1869 18.7647 46.4619 18.7647 44.3414V42.9767C18.9543 42.6806 19.0657 42.3298 19.0657 41.9528V41.0086L23.2702 34.4629C24.5133 32.6891 25.1704 30.604 25.1704 28.4311C25.1704 24.9528 23.454 21.7034 20.5788 19.7387ZM15.723 29.8442L15.7314 31.9995L14.7194 32.003C14.696 32.0018 14.6728 31.9995 14.6491 31.9995C14.6219 31.9995 14.5951 32.0019 14.5684 32.0035L13.5753 32.007L13.5678 29.8518L15.723 29.8442ZM16.1286 44.3413C16.1286 45.0082 15.5859 45.5507 14.919 45.5507H14.3795C13.7126 45.5507 13.1699 45.0082 13.1699 44.3413V43.858H16.1286V44.3413Z" fill="#A73AFD"/>
<path d="M45.3167 23.4023C51.7689 23.4023 57.0179 18.1532 57.0179 11.701C57.0179 5.24907 51.7689 0 45.3167 0C38.8645 0 33.6155 5.24907 33.6155 11.701C33.6155 18.1532 38.8645 23.4023 45.3167 23.4023ZM45.3167 2.63604C50.3152 2.63604 54.3819 6.70258 54.3819 11.701C54.3819 16.6995 50.3152 20.7662 45.3167 20.7662C40.3182 20.7662 36.2515 16.6995 36.2515 11.701C36.2515 6.70258 40.3182 2.63604 45.3167 2.63604Z" fill="#A73AFD"/>
<path d="M42.999 16.0994C43.2563 16.3567 43.5937 16.4853 43.9309 16.4853C44.2681 16.4853 44.6056 16.3567 44.863 16.0994L51.0205 9.94194C51.5352 9.42703 51.5352 8.59263 51.0205 8.0779C50.5056 7.56335 49.6712 7.56335 49.1564 8.0779L43.9311 13.3034L43.0443 12.4168C42.5298 11.9023 41.6952 11.9021 41.1805 12.417C40.6657 12.9317 40.6657 13.7663 41.1806 14.2809L42.999 16.0994Z" fill="#A73AFD"/>
<path d="M86.7693 26.2155C86.5258 25.4653 85.8896 24.9291 85.1092 24.8156L79.6316 24.0196L77.182 19.056C76.833 18.349 76.1264 17.9098 75.338 17.9098C74.5499 17.9098 73.8432 18.349 73.4942 19.056L71.0445 24.0196L65.5668 24.8156C64.7865 24.9291 64.1503 25.4653 63.9069 26.2153C63.6634 26.9652 63.8628 27.7727 64.4273 28.3229L68.391 32.1865L67.4552 37.6422C67.3222 38.4193 67.6357 39.1899 68.2734 39.6531C68.9112 40.1167 69.7408 40.1767 70.4389 39.8097L75.3382 37.234L80.2377 39.8097C80.5412 39.9693 80.8697 40.048 81.1964 40.048C81.621 40.048 82.0427 39.9148 82.4033 39.653C83.0411 39.1894 83.3544 38.4189 83.221 37.642L82.2854 32.1866L86.2488 28.3231C86.8133 27.7728 87.0129 26.9652 86.7693 26.2155ZM80.227 30.5113C79.7423 30.9837 79.5211 31.6642 79.6355 32.3316L80.424 36.9298L76.2949 34.7589C75.9953 34.6014 75.6667 34.5225 75.338 34.5225C75.0094 34.5225 74.6806 34.6013 74.381 34.7587L70.2517 36.9298L71.0404 32.3313C71.1546 31.664 70.9336 30.9835 70.4491 30.5115L67.1083 27.2553L71.7254 26.5845C72.3953 26.4868 72.974 26.0663 73.2731 25.4596L75.3379 21.276L77.4022 25.4589C77.7015 26.0661 78.2804 26.4868 78.9508 26.5843L83.5674 27.2551L80.227 30.5113Z" fill="#A73AFD"/>
<path d="M59.2925 16.9065C61.3038 17.691 63.2525 18.6519 65.1088 19.7677C64.5285 20.0403 64.218 20.7019 64.4066 21.3351C64.577 21.9071 65.1013 22.277 65.6692 22.277C65.7938 22.277 65.9206 22.2591 66.0462 22.2218L68.5431 21.4781C69.1017 21.3119 69.4847 20.798 69.4847 20.2149V17.5142C69.4847 16.7861 68.8947 16.1962 68.1666 16.1962C67.4386 16.1962 66.8486 16.7861 66.8486 17.5142V17.742C64.751 16.4498 62.5389 15.3434 60.2504 14.4506C59.5723 14.186 58.8082 14.5213 58.5435 15.1996C58.2792 15.8778 58.6143 16.6419 59.2925 16.9065Z" fill="#A73AFD"/>
<path d="M24.5183 20.1527C24.7536 20.1527 24.9919 20.0898 25.207 19.9577C26.4375 19.2016 27.7188 18.5124 29.0282 17.8991L28.9597 18.1557C28.7716 18.8588 29.1894 19.5812 29.8927 19.7695C30.0065 19.7999 30.1211 19.8144 30.2338 19.8144C30.8158 19.8144 31.3488 19.4255 31.5063 18.8365L32.3111 15.8247C32.4904 15.1546 32.1192 14.4601 31.4625 14.2367L29.0472 13.4147C28.3587 13.1795 27.6093 13.5484 27.3749 14.2378C27.2053 14.7358 27.3519 15.2639 27.7058 15.6077C26.3776 16.2387 25.0778 16.9434 23.8273 17.7118C23.2071 18.0929 23.0131 18.9045 23.3941 19.5246C23.6429 19.9295 24.0754 20.1527 24.5183 20.1527Z" fill="#A73AFD"/>
</svg>
