<svg width="91" height="90" viewBox="0 0 91 90" fill="none" xmlns="http://www.w3.org/2000/svg">
<path d="M75.3311 15.1689C70.4676 10.3063 64.4893 6.70623 57.9166 4.68192C51.3439 2.65761 44.376 2.27047 37.6195 3.5542C30.863 4.83793 24.5226 7.75361 19.1503 12.0475C13.7781 16.3413 9.5367 21.8831 6.79544 28.1906C6.04744 28.3224 5.34896 28.6539 4.77387 29.15C4.19878 29.6462 3.76847 30.2885 3.52843 31.0091C3.28839 31.7297 3.24756 32.5018 3.41024 33.2437C3.57293 33.9856 3.93309 34.6697 4.45263 35.2238C1.89743 46.0054 3.67467 57.3592 9.40228 66.8444C7.42442 70.5967 6.31317 74.7448 6.15033 78.9833C5.2084 79.3102 4.41271 79.9602 3.90439 80.818C3.39607 81.6757 3.20798 82.6858 3.37347 83.669C3.53897 84.6523 4.04736 85.5451 4.80847 86.1892C5.56958 86.8333 6.53421 87.187 7.53126 87.1875H30.0313C30.6986 87.1873 31.3564 87.0286 31.9504 86.7246C32.5445 86.4205 33.0578 85.9797 33.4483 85.4385C42.4456 88.1189 52.0798 87.722 60.8262 84.3106C69.5725 80.8993 76.9313 74.6684 81.7379 66.6041C86.5445 58.5398 88.5242 49.1028 87.3638 39.7867C86.2034 30.4706 81.9691 21.8077 75.3311 15.1689ZM7.53126 30.9375H30.0313C30.4042 30.9375 30.7619 31.0857 31.0256 31.3494C31.2894 31.6131 31.4375 31.9708 31.4375 32.3438C31.4375 32.7167 31.2894 33.0744 31.0256 33.3381C30.7619 33.6019 30.4042 33.75 30.0313 33.75H7.53126C7.1583 33.75 6.80062 33.6019 6.5369 33.3381C6.27317 33.0744 6.12501 32.7167 6.12501 32.3438C6.12501 31.9708 6.27317 31.6131 6.5369 31.3494C6.80062 31.0857 7.1583 30.9375 7.53126 30.9375ZM21.0819 53.3672C20.7192 53.7295 20.4039 54.1363 20.1437 54.578C19.9914 54.7975 19.7879 54.9767 19.5508 55.0999C19.3138 55.2231 19.0502 55.2867 18.783 55.2852C18.5151 55.2868 18.2509 55.2231 18.0132 55.0997C17.7754 54.9762 17.5713 54.7968 17.4184 54.5768C17.1583 54.1356 16.8433 53.7292 16.481 53.3672C16.0483 52.9346 15.6334 52.4892 15.2363 52.0313H22.3269C21.929 52.4883 21.514 52.9336 21.0819 53.3672ZM24.4546 49.2188H13.1079C10.6356 45.4398 9.21012 41.0724 8.97707 36.5625H28.5863C28.353 41.0725 26.9273 45.4398 24.4546 49.2188ZM14.4922 55.3557C15.0116 55.8741 15.34 56.5532 15.424 57.2823C15.5079 58.0114 15.3424 58.7474 14.9545 59.3703C14.0705 57.5021 13.3625 55.5555 12.8399 53.5558C13.3626 54.1748 13.9134 54.7748 14.4922 55.3557ZM16.4806 61.9453C17.5187 60.9081 18.1435 59.5283 18.2385 58.0639C18.4187 58.0859 18.6002 58.0969 18.7818 58.097H18.783C18.9633 58.0969 19.1434 58.0859 19.3223 58.0641C19.4173 59.5284 20.0422 60.9081 21.0801 61.9453C25.0313 65.8744 27.5902 70.987 28.3671 76.5048L19.7739 67.9115C19.6433 67.7809 19.4883 67.6774 19.3177 67.6067C19.1471 67.536 18.9642 67.4996 18.7795 67.4996C18.5948 67.4996 18.412 67.536 18.2413 67.6067C18.0707 67.6774 17.9157 67.7809 17.7851 67.9115L9.19363 76.5051C9.97053 70.9873 12.5294 65.8745 16.4806 61.9453ZM18.7813 70.8949L26.6362 78.75H10.9263L18.7813 70.8949ZM30.2346 71.9102L31.2491 72.4957L32.6553 70.0601L30.2197 68.6539L29.5296 69.8492C28.0912 66.1367 25.8908 62.7669 23.0703 59.9569C22.7682 59.6548 22.5285 59.2961 22.3649 58.9014C22.2014 58.5067 22.1172 58.0836 22.1172 57.6563C22.1172 57.229 22.2014 56.8059 22.3649 56.4112C22.5285 56.0164 22.7682 55.6577 23.0703 55.3557C28.1571 50.2968 31.1377 43.4981 31.4117 36.3293C32.3536 36.0023 33.1492 35.3524 33.6575 34.4947C34.1659 33.637 34.354 32.627 34.1886 31.6438C34.0231 30.6606 33.5149 29.7678 32.7538 29.1236C31.9928 28.4795 31.0283 28.1257 30.0313 28.125H16.2651C19.2274 22.993 23.4889 18.7316 28.6209 15.7693C33.7529 12.807 39.5744 11.2483 45.5 11.25C64.1098 11.25 79.25 26.3902 79.25 45C79.25 63.6098 64.1098 78.75 45.5 78.75C40.5059 78.7639 35.5722 77.6575 31.0622 75.5123C30.8649 74.2949 30.5884 73.0917 30.2346 71.9102ZM6.12501 45C6.12594 43.2255 6.24568 41.453 6.48343 39.6944C6.9268 42.4972 7.78984 45.2171 9.04351 47.7628C9.39547 52.6035 10.7193 57.3237 12.936 61.6414C12.2667 62.4255 11.6401 63.2451 11.0592 64.0967C7.8168 58.2545 6.11852 51.6817 6.12501 45ZM30.0313 84.375H7.53126C7.1583 84.375 6.80062 84.2269 6.5369 83.9632C6.27317 83.6994 6.12501 83.3417 6.12501 82.9688C6.12501 82.5958 6.27317 82.2381 6.5369 81.9744C6.80062 81.7107 7.1583 81.5625 7.53126 81.5625H30.0313C30.4042 81.5625 30.7619 81.7107 31.0256 81.9744C31.2894 82.2381 31.4375 82.5958 31.4375 82.9688C31.4375 83.3417 31.2894 83.6994 31.0256 83.9632C30.7619 84.2269 30.4042 84.375 30.0313 84.375ZM73.3424 72.8424C68.3198 77.859 62.036 81.4266 55.1543 83.1687C48.2726 84.9108 41.0482 84.7628 34.2437 82.7403C34.1972 81.9038 33.9032 81.1 33.3991 80.431C32.8949 79.7619 32.2033 79.2578 31.412 78.9826C31.4089 78.9028 31.4071 78.8228 31.4032 78.7432C35.8664 80.616 40.6599 81.5746 45.5 81.5625C65.6605 81.5625 82.0625 65.1606 82.0625 45C82.0625 24.8395 65.6605 8.43753 45.5 8.43753C38.8089 8.43503 32.2455 10.2696 26.5254 13.7412C20.8053 17.2129 16.1482 22.1883 13.0617 28.125H9.91345C12.3727 22.939 15.9358 18.3533 20.3534 14.6889C24.7709 11.0245 29.9361 8.37002 35.4872 6.91135C41.0383 5.45269 46.8411 5.22508 52.4894 6.24448C58.1377 7.26387 63.4949 9.50562 68.1859 12.8128C72.8769 16.1199 76.7882 20.4125 79.6461 25.3899C82.504 30.3674 84.2393 35.9094 84.7305 41.6279C85.2217 47.3464 84.457 53.1031 82.4898 58.495C80.5226 63.8869 77.4006 68.7837 73.3424 72.8424Z" fill="#A73AFD"/>
<path d="M44.0938 14.0625H46.9062V19.6875H44.0938V14.0625Z" fill="#A73AFD"/>
<path d="M70.8125 43.5938H76.4375V46.4062H70.8125V43.5938Z" fill="#A73AFD"/>
<path d="M44.0938 70.3125H46.9062V75.9375H44.0938V70.3125Z" fill="#A73AFD"/>
<path d="M28.8127 18.91L31.2482 17.5039L32.6545 19.9395L30.219 21.3457L28.8127 18.91Z" fill="#A73AFD"/>
<path d="M58.3431 70.0582L60.7786 68.652L62.1848 71.0876L59.7493 72.4938L58.3431 70.0582Z" fill="#A73AFD"/>
<path d="M69.1525 60.2821L70.5588 57.8465L72.9944 59.2527L71.5882 61.6884L69.1525 60.2821Z" fill="#A73AFD"/>
<path d="M69.1522 29.7188L71.5878 28.3125L72.9941 30.7481L70.5585 32.1544L69.1522 29.7188Z" fill="#A73AFD"/>
<path d="M58.3429 19.9401L59.7491 17.5045L62.1846 18.9107L60.7784 21.3463L58.3429 19.9401Z" fill="#A73AFD"/>
<path d="M47.85 48.5017L56.3051 53.0017L53.988 53.6226L54.7159 56.3393L60.4789 54.7952C60.6573 54.7474 60.8245 54.665 60.9711 54.5525C61.1176 54.4401 61.2406 54.2999 61.3329 54.1399C61.4253 53.9799 61.4852 53.8033 61.5093 53.6202C61.5333 53.4371 61.5211 53.251 61.4733 53.0726L59.929 47.3098L57.2123 48.0377L57.919 50.6744L49.5403 46.2141C49.8526 45.1761 49.7532 44.0578 49.2627 43.0912C48.7722 42.1246 47.9284 41.384 46.9063 41.0231V25.895L48.7244 27.7131L50.7132 25.7243L46.4944 21.5056C46.3638 21.375 46.2088 21.2714 46.0382 21.2007C45.8676 21.1301 45.6847 21.0937 45.5 21.0937C45.3153 21.0937 45.1325 21.1301 44.9618 21.2007C44.7912 21.2714 44.6362 21.375 44.5056 21.5056L40.2869 25.7243L42.2757 27.7131L44.0938 25.895V41.0231C43.5283 41.2218 43.0117 41.5387 42.5783 41.9526C42.1449 42.3666 41.8047 42.8682 41.5803 43.4239C41.356 43.9797 41.2526 44.5769 41.2771 45.1757C41.3016 45.7745 41.4534 46.3613 41.7224 46.8968C41.9914 47.4324 42.3714 47.9045 42.8371 48.2817C43.3029 48.6589 43.8436 48.9326 44.4234 49.0844C45.0032 49.2363 45.6087 49.2628 46.1995 49.1624C46.7904 49.0619 47.353 48.8367 47.85 48.5017ZM44.0938 45C44.0938 44.7219 44.1762 44.45 44.3308 44.2187C44.4853 43.9875 44.7049 43.8072 44.9619 43.7008C45.2188 43.5943 45.5016 43.5665 45.7744 43.6208C46.0471 43.675 46.2977 43.809 46.4944 44.0056C46.691 44.2023 46.825 44.4529 46.8792 44.7256C46.9335 44.9984 46.9056 45.2812 46.7992 45.5381C46.6928 45.7951 46.5125 46.0147 46.2813 46.1692C46.05 46.3238 45.7781 46.4062 45.5 46.4062C45.1272 46.4058 44.7697 46.2575 44.5061 45.9939C44.2425 45.7303 44.0942 45.3728 44.0938 45Z" fill="#A73AFD"/>
</svg>
