<svg width="91" height="90" viewBox="0 0 91 90" fill="none" xmlns="http://www.w3.org/2000/svg">
<path d="M73.7429 56.7379C72.926 56.7379 72.2632 56.0759 72.2632 55.2581V54.6952C72.2632 52.9658 69.7956 51.2693 67.2814 51.2693H61.2322C60.4153 51.2693 59.7533 50.6082 59.7533 49.7905C59.7533 48.9727 60.4153 48.3107 61.2322 48.3107H67.2814C71.0375 48.3107 75.2218 50.9333 75.2218 54.6952V55.2581C75.2218 56.0759 74.5598 56.7379 73.7429 56.7379Z" fill="#A736FF"/>
<path d="M67.8265 38.6942C67.7859 38.6942 67.7452 38.6934 67.7046 38.69C66.8894 38.6223 66.2833 37.9087 66.351 37.0943L67.0909 28.0644C67.0849 22.9675 63.1435 18.7222 58.2989 18.7222H50.7225C45.877 18.7222 41.9356 22.9675 41.9356 28.1855L42.6695 37.0943C42.7372 37.9087 42.1311 38.6223 41.3159 38.69C40.5066 38.7569 39.7888 38.1516 39.7211 37.3364L38.9821 28.3065C38.977 21.3363 44.2457 15.7636 50.7225 15.7636H58.298C64.7756 15.7636 70.0444 21.3363 70.0444 28.1855L69.2995 37.3364C69.236 38.1093 68.5892 38.6942 67.8265 38.6942Z" fill="#A736FF"/>
<path d="M54.5108 52.7491C52.7568 52.7491 50.9892 52.4672 49.3986 51.933C48.624 51.6731 48.2067 50.8334 48.4674 50.0588C48.7282 49.2851 49.5662 48.8703 50.3399 49.1268C51.6309 49.5602 53.0725 49.7905 54.5099 49.7905C57.863 49.7905 60.9655 48.5765 62.6061 46.6219C64.8426 43.9554 66.3452 40.1494 66.3452 37.1527V31.1906C66.3452 30.4135 66.186 29.8946 65.8728 29.6525C64.7579 28.784 61.2152 29.6838 58.0899 30.477C55.2328 31.2025 52.2802 31.9534 49.6043 31.9534C46.2749 31.9534 44.0333 30.7555 42.6916 29.9319C42.6814 30.2628 42.6755 30.6751 42.6755 31.1906V37.1527C42.6755 39.3113 43.4797 41.9974 44.8274 44.3371C45.2354 45.0457 44.9916 45.9498 44.2839 46.357C43.5754 46.7658 42.6713 46.5229 42.2633 45.8135C40.6447 43.0022 39.7161 39.8455 39.7161 37.1527V31.1906C39.7161 28.6748 39.7728 27.2204 40.9435 26.5745C41.9873 25.9896 42.9752 26.6177 43.8454 27.1637C45.0018 27.8934 46.7498 28.9948 49.6043 28.9948C51.9094 28.9948 54.6809 28.2896 57.361 27.609C61.6927 26.5094 65.4301 25.5579 67.6894 27.3161C68.7611 28.1491 69.3038 29.4527 69.3038 31.1906V37.1527C69.3038 40.8503 67.565 45.3123 64.8722 48.5232C62.6526 51.1694 58.7781 52.7491 54.5108 52.7491Z" fill="#A736FF"/>
<path d="M68.0112 71.0738C67.3348 71.0738 66.7236 70.6057 66.5695 69.9183C66.3909 69.1209 66.8929 68.3294 67.6903 68.1516L85.2472 64.2203C85.899 64.1052 86.4087 63.781 86.749 63.2959C87.0893 62.8109 87.2205 62.2225 87.118 61.6384C86.9826 60.863 86.4383 60.2112 85.7001 59.9369C84.9332 59.6533 84.5421 58.8026 84.8265 58.0356C85.1109 57.2695 85.9651 56.8751 86.7269 57.1629C88.4488 57.8003 89.716 59.3198 90.0326 61.1271C90.2722 62.49 89.9657 63.8631 89.1709 64.9949C88.3768 66.1276 87.1883 66.8818 85.8254 67.1214L68.3362 71.0382C68.2279 71.0619 68.1187 71.0738 68.0112 71.0738Z" fill="#A736FF"/>
<path d="M47.9959 79.3782H36.7575C36.6499 79.3782 36.5424 79.3672 36.4366 79.3435L23.1225 76.3849C22.3251 76.2071 21.8214 75.4165 21.9992 74.6199C22.1761 73.8224 22.965 73.3247 23.7633 73.4957L36.92 76.4196H47.9959C53.7692 76.4196 59.4324 74.4328 63.9419 70.8258C63.9817 70.7936 64.0231 70.7648 64.0655 70.7377L85.9625 56.6575C86.0336 56.6109 86.1081 56.572 86.1851 56.539C86.7311 56.3079 87.1535 55.877 87.3762 55.3284C87.5988 54.7782 87.5929 54.1738 87.3618 53.6295C86.8835 52.5019 85.5782 51.9745 84.4523 52.4528L62.4715 61.5148C62.2928 61.5885 62.1007 61.6257 61.9077 61.6257H33.7989C33.2655 61.6257 32.7737 61.3396 32.5113 60.8757C32.2489 60.411 32.2565 59.8413 32.5308 59.385L36.9691 51.9881C37.2357 51.5436 37.7174 51.2702 38.2372 51.2702H44.1552C46.9073 51.2702 49.2267 49.3825 49.8853 46.8319H34.2831L14.1019 61.6325C13.4417 62.1159 12.5181 61.9703 12.0339 61.3142C11.5514 60.6556 11.6936 59.7295 12.3522 59.2453L32.9244 44.1594C33.1775 43.9732 33.4839 43.8733 33.7989 43.8733H51.5513C52.3682 43.8733 53.031 44.5353 53.031 45.353C53.031 50.2476 49.049 54.2297 44.1544 54.2297H39.0752L36.4121 58.668H61.6148L83.3112 49.7236C85.9261 48.6121 88.971 49.8464 90.0859 52.474C90.626 53.7471 90.6387 55.1541 90.1198 56.4374C89.6186 57.6784 88.679 58.6578 87.4668 59.2098L65.7306 73.1859C60.7073 77.1789 54.4134 79.3782 47.9959 79.3782Z" fill="#A736FF"/>
<path d="M16.5069 87.7503C16.4282 87.7503 16.3486 87.7444 16.2699 87.7317C15.8822 87.6682 15.536 87.454 15.3066 87.1366L0.780229 66.9851C0.549974 66.6676 0.45601 66.2698 0.5195 65.8829C0.582142 65.496 0.796313 65.1498 1.11461 64.9196L10.7142 57.9992C11.3787 57.5269 12.3023 57.6725 12.7797 58.3345L27.306 78.4843C27.7843 79.1471 27.6345 80.0715 26.9717 80.5498L17.3721 87.4718C17.119 87.6538 16.8151 87.7503 16.5069 87.7503ZM4.04527 66.4552L16.8422 84.2051L24.0418 79.0142L11.245 61.2643L4.04527 66.4552Z" fill="#A736FF"/>
<path d="M20.4838 77.8993C20.4838 79.5331 19.159 80.8579 17.5252 80.8579C15.8915 80.8579 14.5667 79.5331 14.5667 77.8993C14.5667 76.2646 15.8915 74.9398 17.5252 74.9398C19.159 74.9398 20.4838 76.2646 20.4838 77.8993Z" fill="#A736FF"/>
<path d="M54.5107 11.3253C53.693 11.3253 53.031 10.6642 53.031 9.84645V3.9284C53.031 3.11066 53.693 2.44952 54.5107 2.44952C55.3276 2.44952 55.9896 3.11066 55.9896 3.9284V9.84645C55.9896 10.6642 55.3276 11.3253 54.5107 11.3253Z" fill="#A736FF"/>
<path d="M60.4279 11.3253C60.0495 11.3253 59.6711 11.1814 59.3825 10.8919C58.8043 10.3146 58.8043 9.37832 59.3825 8.80015L64.5598 3.62196C65.138 3.04463 66.0743 3.04463 66.6516 3.62196C67.2298 4.20014 67.2298 5.13639 66.6516 5.71457L61.4742 10.8919C61.1847 11.1814 60.8072 11.3253 60.4279 11.3253Z" fill="#A736FF"/>
<path d="M48.5927 11.3253C48.2143 11.3253 47.8359 11.1814 47.5472 10.8919L43.1089 6.45353C42.5307 5.8762 42.5307 4.93994 43.1089 4.36177C43.6863 3.78444 44.6225 3.78444 45.2007 4.36177L49.639 8.80009C50.2163 9.37827 50.2163 10.3145 49.639 10.8919C49.3495 11.1814 48.9711 11.3253 48.5927 11.3253Z" fill="#A736FF"/>
</svg>
