<?xml version="1.0" standalone="no"?>
<!DOCTYPE svg PUBLIC "-//W3C//DTD SVG 20010904//EN"
 "http://www.w3.org/TR/2001/REC-SVG-20010904/DTD/svg10.dtd">
<svg version="1.0" xmlns="http://www.w3.org/2000/svg"
 width="473.000000pt" height="565.000000pt" viewBox="0 0 473.000000 565.000000"
 preserveAspectRatio="xMidYMid meet">

<g transform="translate(0.000000,565.000000) scale(0.100000,-0.100000)"
fill="#000000" stroke="none">
<path d="M2000 5019 c-435 -49 -821 -256 -1027 -550 -170 -243 -225 -552 -144
-809 65 -207 251 -411 534 -587 170 -105 731 -374 746 -357 11 12 291 846 291
866 0 9 -15 21 -32 28 -43 17 -347 168 -423 210 -213 117 -350 236 -411 357
-39 76 -39 77 -39 192 1 179 43 290 153 404 125 129 303 187 571 189 289 1
498 -65 686 -216 78 -62 184 -180 237 -262 75 -117 137 -275 163 -413 8 -47
17 -86 19 -88 2 -2 46 -2 99 -1 l95 3 -44 115 c-98 257 -184 392 -349 548
-222 210 -465 330 -750 371 -82 12 -268 12 -375 0z"/>
<path d="M2180 3911 c0 -16 11 -20 78 -26 227 -21 262 -119 159 -450 -13 -44
-111 -334 -217 -645 -105 -311 -209 -617 -230 -680 -357 -1068 -382 -1135
-473 -1255 -90 -120 -192 -165 -374 -165 -58 0 -73 -3 -73 -15 0 -13 153 -15
1315 -15 l1315 0 10 23 c5 12 39 137 75 277 36 140 81 314 100 385 19 72 66
255 105 408 39 153 73 284 77 292 4 11 -3 15 -26 15 -17 0 -31 -4 -31 -9 0 -4
-7 -47 -15 -95 -53 -305 -177 -551 -390 -774 -136 -143 -255 -232 -421 -315
-253 -126 -489 -177 -823 -177 -105 0 -191 1 -191 3 0 3 56 170 500 1487 155
459 324 962 375 1117 107 317 127 367 183 450 65 96 140 137 272 149 49 5 70
11 70 20 0 12 -115 14 -685 14 -664 0 -685 -1 -685 -19z"/>
<path d="M3014 3078 c-26 -79 -94 -280 -150 -447 l-103 -305 71 -74 c100 -105
140 -194 146 -319 14 -304 -175 -548 -491 -630 -44 -12 -73 -25 -79 -37 -10
-18 -7 -18 53 -12 94 11 271 58 386 104 394 154 681 438 775 767 19 68 23 102
22 225 0 128 -4 156 -27 233 -43 141 -89 220 -199 348 -78 92 -317 289 -349
289 -4 0 -29 -64 -55 -142z"/>
<path d="M925 1600 c13 -21 135 -101 220 -143 131 -66 319 -128 458 -152 35
-6 38 -4 35 15 -2 18 -19 28 -83 49 -137 47 -266 124 -344 205 l-35 36 -129 0
c-81 0 -126 -4 -122 -10z"/>
</g>
</svg>
