<svg version="1.1" id="Layer_1" xmlns="http://www.w3.org/2000/svg" xmlns:xlink="http://www.w3.org/1999/xlink" x="0px" y="0px"
	 width="100%" viewBox="0 0 1280 905" enable-background="new 0 0 1280 905" xml:space="preserve">
<path fill="#532467" opacity="1.000000" stroke="none" 
	d="
M1.000000,905.000000 
	C1.000000,603.722839 1.000000,302.445648 1.000000,1.000000 
	C427.030914,1.000000 853.061829,1.000000 1279.549072,1.468651 
	C1280.005493,300.583160 1280.005981,599.229004 1280.004883,897.874878 
	C1280.004883,904.992065 1279.996826,905.001465 1273.411865,905.001465 
	C849.274597,905.002014 425.137299,905.000916 1.000000,905.000000 
M1056.886108,706.118835 
	C1056.886108,706.118835 1056.809082,706.115906 1056.905884,706.694275 
	C1057.187012,706.949341 1057.468140,707.204346 1057.641968,707.919800 
	C1057.664551,708.238708 1057.625488,708.549866 1056.981934,709.168945 
	C1048.263916,719.412476 1039.545898,729.655945 1030.278442,740.182129 
	C1029.140381,741.360291 1028.002197,742.538452 1026.293213,743.886658 
	C1026.057861,744.199036 1025.822632,744.511414 1024.986084,745.112427 
	C1021.133118,747.476562 1017.280151,749.840637 1012.938232,752.504761 
	C1021.358337,752.504761 1029.252808,752.504761 1038.274902,752.504761 
	C1030.456787,748.275940 1030.245605,747.822998 1032.744629,740.909485 
	C1040.751343,731.378662 1048.728638,721.822815 1056.817261,712.361938 
	C1057.501953,711.561096 1058.929810,711.395569 1060.239136,711.593933 
	C1066.081299,720.274963 1072.102417,728.843750 1077.661377,737.702576 
	C1079.424561,740.512634 1080.693115,744.084534 1080.744141,747.330505 
	C1080.770508,748.996826 1077.616821,750.713257 1075.691772,752.612793 
	C1088.208862,752.612793 1100.562134,752.612793 1112.915283,752.612793 
	C1102.563110,748.685791 1097.385498,739.926636 1091.768433,731.593323 
	C1085.551392,722.369873 1079.266479,713.192200 1072.953491,703.445435 
	C1072.679077,703.223816 1072.404663,703.002197 1071.926147,702.101562 
	C1071.921265,701.402832 1071.916382,700.704102 1072.511475,699.692627 
	C1080.354980,690.137390 1088.198486,680.582214 1096.598999,670.669556 
	C1102.224854,666.354248 1107.850708,662.038879 1113.337402,657.830322 
	C1105.851074,657.830322 1097.933228,657.830322 1090.015381,657.830322 
	C1089.653931,658.177612 1089.292480,658.524902 1088.931030,658.872192 
	C1095.886597,660.294067 1097.372559,664.047241 1094.223389,669.942871 
	C1087.092773,678.674194 1080.011230,687.446838 1072.764038,696.080322 
	C1071.935181,697.067749 1070.178345,697.276184 1068.641968,697.239197 
	C1068.214478,696.762268 1067.787109,696.285339 1067.246460,695.187073 
	C1066.962769,694.885864 1066.679077,694.584656 1066.390747,694.055786 
	C1066.390747,694.055786 1066.180298,693.968384 1066.086792,693.364746 
	C1065.794312,693.094727 1065.501831,692.824707 1065.025513,691.908142 
	C1061.030396,685.980408 1056.898804,680.138245 1053.101440,674.086426 
	C1051.370850,671.328247 1049.285522,668.169189 1049.246338,665.167358 
	C1049.213867,662.696167 1051.962402,660.188538 1053.340698,657.923462 
	C1041.071167,657.923462 1028.109009,657.923462 1015.146851,657.923462 
	C1026.178589,661.361633 1032.261719,669.748413 1038.057129,678.623291 
	C1043.871094,687.526489 1050.020020,696.210876 1056.099487,705.509033 
	C1056.350952,705.735657 1056.602295,705.962219 1056.886108,706.118835 
M948.860229,750.190796 
	C948.860229,750.190796 948.755493,750.223389 949.135986,750.728821 
	C949.727173,750.916199 950.318298,751.103577 951.401184,751.740479 
	C951.830811,751.842529 952.260498,751.944641 952.579468,751.959412 
	C952.579468,751.959412 952.581665,752.086487 953.249634,752.527344 
	C954.284485,752.747375 955.319336,752.967407 956.893433,753.660645 
	C957.591919,753.746582 958.290344,753.832581 959.709900,754.175232 
	C961.476440,754.387085 963.242981,754.598938 965.868347,754.992004 
	C967.906128,754.906677 969.943970,754.821350 972.683472,754.805969 
	C973.118652,754.648804 973.553833,754.491638 974.745483,754.428101 
	C990.689270,752.045471 1001.164490,740.773682 1001.951721,723.565491 
	C1002.689636,707.436890 1002.541443,691.252319 1002.278564,675.100586 
	C1002.165405,668.149536 1000.746765,661.205566 1011.131775,658.415894 
	C1003.972473,658.415894 998.505676,658.415894 994.073547,658.415894 
	C996.105896,661.191772 998.215088,664.072632 1000.183411,667.455933 
	C1000.314514,667.767029 1000.445618,668.078186 1000.513245,669.275146 
	C1000.516602,670.938477 1000.537476,672.601990 1000.520386,674.265137 
	C1000.348328,691.058655 1000.774170,707.886597 999.818115,724.635620 
	C998.920776,740.356689 989.188843,749.992249 973.248352,752.193848 
	C972.504578,752.240479 971.760742,752.287109 970.234009,752.122864 
	C969.157349,752.064880 968.080627,752.006897 966.425842,751.556702 
	C953.379333,747.000793 946.200806,736.177917 946.082703,720.471375 
	C945.967529,705.149414 946.036682,689.825989 946.061096,674.503174 
	C946.071655,667.882996 944.903503,660.664429 953.735840,657.912231 
	C943.619995,657.912231 933.504150,657.912231 923.388245,657.912231 
	C930.592712,660.497559 931.155518,666.016418 931.089233,672.242615 
	C930.926025,687.563538 930.813110,702.892700 931.139221,718.208740 
	C931.408630,730.862671 934.890320,742.197388 947.146362,749.618103 
	C947.725098,749.844788 948.303772,750.071472 948.860229,750.190796 
M574.286011,740.856812 
	C574.162170,741.238708 574.038330,741.620605 573.707275,742.124756 
	C573.707275,742.124756 573.721375,742.364868 573.216980,742.749146 
	C573.062256,743.134460 572.907532,743.519775 572.246460,744.330444 
	C568.362122,747.103882 564.477722,749.877380 560.627869,752.626221 
	C568.020142,752.626221 575.845032,752.626221 583.669861,752.626221 
	C584.072815,752.244080 584.475769,751.861938 584.878662,751.479797 
	C577.385681,750.927856 576.193298,746.517761 577.108521,740.326538 
	C579.398193,734.184265 581.687866,728.041992 584.900879,722.081055 
	C597.934448,722.054993 610.967957,722.028992 624.582336,722.442932 
	C626.394348,726.916504 628.235352,731.378601 630.012207,735.866028 
	C633.792664,745.413025 633.138977,747.459778 624.258911,752.486145 
	C637.499084,752.486145 650.067383,752.486145 662.635681,752.486145 
	C652.892517,749.851807 648.822144,742.421814 645.480835,734.133301 
	C636.333740,711.442444 627.067566,688.799500 617.853088,666.135742 
	C614.002808,656.665649 614.008057,656.663513 603.132874,657.723145 
	C602.474304,659.806885 601.778625,662.008179 600.690552,664.779297 
	C592.110657,689.844543 583.530701,714.909790 574.749146,740.184937 
	C574.749146,740.184937 574.767456,740.475464 574.286011,740.856812 
M307.881165,722.035828 
	C320.615295,721.959717 333.349396,721.883606 346.757172,722.102417 
	C349.375000,728.350342 352.346619,734.479187 354.501526,740.882935 
	C356.306915,746.248047 354.352295,749.083679 348.873047,751.037537 
	C348.385925,751.211182 348.001831,751.673767 346.722900,752.646240 
	C360.361267,752.646240 372.909729,752.646240 386.233154,752.646240 
	C372.834106,745.034180 372.888428,745.012085 366.712799,729.810730 
	C357.457916,707.029541 347.913208,684.362976 338.954590,661.466614 
	C336.651794,655.581177 332.433655,657.841980 328.718384,657.411682 
	C324.907349,656.970398 325.285583,660.126892 324.195282,662.929382 
	C318.480896,679.544861 312.776428,696.163757 307.048187,712.774475 
	C303.968445,721.705017 301.139496,730.736938 297.666809,739.513184 
	C293.914215,748.996887 286.260132,752.719788 277.838989,749.228516 
	C277.431915,748.834961 277.024841,748.441467 276.505554,747.447327 
	C276.111938,746.749512 275.718323,746.051697 275.204041,744.505432 
	C275.204041,716.241211 275.204041,687.977051 275.204041,659.975769 
	C293.249512,655.452148 299.763367,666.290344 304.144653,680.442627 
	C304.144653,672.897217 304.144653,665.351807 304.144653,657.546875 
	C279.646210,657.546875 255.430725,657.546875 231.130463,657.546875 
	C231.130463,665.347412 231.130463,672.914246 231.130463,681.850647 
	C239.268326,656.979797 245.837677,658.622009 259.553894,659.627380 
	C259.680786,660.076599 259.931335,660.548462 259.930481,661.019836 
	C259.878448,689.154236 259.805725,717.288574 259.300995,745.826721 
	C259.050751,746.567627 258.800476,747.308472 258.017517,748.470703 
	C257.358215,749.089355 256.698944,749.708069 255.335709,750.416199 
	C254.248444,750.914978 253.161163,751.413696 252.073898,751.912415 
	C253.244156,752.966919 254.041550,753.141052 254.837112,753.132996 
	C260.875275,753.072021 266.913055,752.975220 273.637939,753.026611 
	C274.101044,752.984741 274.564178,752.942871 275.808319,753.108093 
	C286.159485,753.108093 296.510651,753.108093 306.861786,753.108093 
	C306.969971,752.570435 307.078156,752.032776 307.186340,751.495178 
	C302.159882,750.590210 298.451141,748.024109 299.807465,742.826843 
	C301.666443,735.703613 304.522125,728.840515 307.881165,722.035828 
M862.872192,753.014771 
	C865.583862,752.967834 868.295593,752.920837 871.739319,753.065918 
	C872.487549,753.002319 873.235718,752.938660 874.810547,753.032898 
	C876.208557,752.974670 877.606628,752.916382 879.918518,753.078064 
	C892.819763,753.078064 905.721008,753.078064 918.656433,753.078064 
	C918.656433,745.124756 918.656433,737.722412 918.656433,730.320068 
	C916.632385,734.809753 915.438660,739.445801 913.547729,743.777405 
	C911.881531,747.593994 909.532654,751.141357 904.465271,751.076965 
	C896.330017,750.973633 888.193726,750.944702 880.025391,749.962097 
	C880.031982,724.804321 880.065674,699.646545 880.027161,674.488831 
	C880.016907,667.815552 879.075256,660.811707 887.632874,657.987671 
	C877.544617,657.987671 867.456360,657.987671 857.368042,657.987671 
	C863.178711,660.171509 865.068054,664.236084 865.050720,669.859497 
	C864.977844,693.517639 864.988892,717.176270 865.046265,740.834534 
	C865.056702,745.147583 863.844116,748.674133 859.220276,750.941895 
	C858.516785,751.312622 857.813354,751.683350 857.109924,752.054138 
	C857.179749,752.318970 857.249573,752.583862 857.319397,752.848694 
	C858.873474,752.848694 860.427490,752.848694 862.872192,753.014771 
M491.882660,753.045776 
	C494.580811,753.000610 497.278961,752.955383 500.898499,753.115479 
	C508.275116,753.044250 515.651733,752.972961 523.867981,752.999512 
	C534.675659,752.459290 544.140564,748.619812 551.140259,740.315247 
	C565.168945,723.671265 567.026306,704.717651 559.166199,685.075378 
	C551.666931,666.334839 536.534241,657.849365 516.752502,657.462891 
	C502.605713,657.186523 488.450104,657.352417 474.298431,657.366394 
	C473.641907,657.367004 472.985840,657.812622 470.519379,658.708313 
	C480.298431,660.335693 480.158569,666.425781 480.135040,672.668762 
	C480.050934,694.988037 480.043823,717.308044 480.151855,739.627075 
	C480.173096,744.013489 479.419525,747.855469 475.088074,750.799500 
	C474.080200,751.150940 473.072296,751.502319 472.064423,751.853699 
	C472.150940,752.195618 472.237427,752.537598 472.323944,752.879578 
	C473.884735,752.879578 475.445526,752.879578 477.911255,753.030090 
	C481.273773,752.987610 484.636292,752.945190 488.734406,753.099731 
	C489.487000,753.035095 490.239563,752.970398 491.882660,753.045776 
M670.500000,262.036102 
	C651.371033,262.036102 632.242065,262.036102 613.274231,262.036102 
	C612.034729,265.600342 613.188538,266.568390 616.366455,266.646790 
	C620.505493,266.748901 624.719421,267.051697 628.742676,267.965637 
	C638.119629,270.095673 643.004639,275.582336 641.877380,285.041534 
	C640.688293,295.019440 638.413635,305.040924 635.226868,314.580200 
	C611.980042,384.166840 588.398926,453.641846 564.886353,523.139587 
	C559.714661,538.425781 555.020752,553.914124 545.780334,567.474548 
	C538.702332,577.861389 529.294495,584.212036 516.569153,585.153809 
	C510.816437,585.579590 505.058472,585.934204 499.302887,586.321106 
	C499.186279,586.903564 499.069702,587.486023 498.953094,588.068481 
	C500.822388,588.388794 502.691589,588.988403 504.561035,588.989197 
	C589.200867,589.026001 673.840759,588.967834 758.480347,589.117004 
	C763.070251,589.125122 764.628174,587.626404 765.708130,583.376282 
	C775.625366,544.348511 785.784485,505.382263 795.851624,466.392517 
	C797.328552,460.672455 798.692505,454.923279 800.163757,448.964600 
	C797.739807,448.698486 795.963196,448.503479 793.908386,448.277924 
	C793.613037,450.051178 793.318237,451.494293 793.138000,452.951569 
	C789.478577,482.544098 778.053040,508.810150 758.440674,531.206726 
	C719.258606,575.951172 668.258789,589.199768 610.679932,585.538147 
	C611.052490,584.044983 611.308838,582.609009 611.767456,581.240845 
	C618.958008,559.786987 626.179504,538.343445 633.384277,516.894348 
	C656.745850,447.345856 680.031677,377.771729 703.554260,308.277710 
	C706.472412,299.656433 710.159790,291.208557 714.356567,283.130127 
	C719.114380,273.971588 726.973083,268.189331 737.308899,266.294067 
	C740.574524,265.695251 743.938782,265.648682 747.222595,265.126801 
	C748.337341,264.949615 749.343323,264.088196 750.399048,263.539490 
	C750.221375,263.038269 750.043701,262.537079 749.866028,262.035858 
	C723.744019,262.035858 697.622009,262.035858 670.500000,262.036102 
M567.465820,158.023163 
	C565.386597,158.627243 563.288818,159.174179 561.231018,159.844055 
	C532.964539,169.045609 508.349976,183.748840 491.327789,208.741241 
	C473.599396,234.770462 468.392273,263.172272 479.152039,293.312469 
	C485.947021,312.346649 499.888306,326.021698 515.845337,337.727448 
	C539.651062,355.190735 566.495483,367.046448 593.098145,379.334290 
	C597.274719,381.263458 601.472900,383.146149 606.154114,385.274475 
	C615.632141,356.807556 624.852051,328.870850 634.298950,301.011139 
	C635.686218,296.919952 635.106079,295.064270 630.957458,293.134338 
	C610.138428,283.449371 589.152710,274.004364 570.340759,260.581451 
	C561.466614,254.249542 553.325867,247.122574 548.347046,237.143478 
	C537.076050,214.552979 548.329041,181.898941 571.689148,168.880569 
	C587.089966,160.297821 603.804810,158.719803 621.001465,158.862930 
	C673.054016,159.296127 705.524719,190.976532 719.816467,228.935074 
	C723.187622,237.888840 724.976074,247.438492 727.640259,257.258331 
	C730.443787,257.258331 733.753845,257.258301 737.063965,257.258301 
	C740.319763,257.258301 743.575562,257.258331 747.473938,257.258331 
	C745.068970,250.878662 742.916870,245.324005 740.875366,239.728989 
	C727.610962,203.376984 701.984924,178.382919 667.563354,162.503250 
	C635.387268,147.659454 601.840515,149.482361 567.465820,158.023163 
M660.285156,517.851440 
	C653.123108,520.482666 646.028015,523.324158 638.765320,525.639648 
	C635.932983,526.542664 634.601562,527.651123 634.970215,531.279907 
	C643.431030,529.532166 651.625183,528.197083 659.627563,526.122437 
	C689.096558,518.482727 715.272644,504.924561 735.718079,481.852356 
	C754.425598,460.741333 763.596741,436.247528 759.388794,407.843109 
	C754.101318,372.151917 729.842773,350.715973 701.493591,331.857727 
	C700.727844,333.842285 700.085876,335.338318 699.566895,336.875916 
	C690.366394,364.135345 681.236145,391.418793 671.917175,418.637573 
	C670.837524,421.791107 671.192627,423.607422 673.785828,425.867767 
	C681.798767,432.852234 688.218201,441.076721 691.129456,451.553528 
	C698.181519,476.932373 685.771912,503.981110 660.285156,517.851440 
M719.496582,706.062500 
	C722.537659,705.234192 725.725952,704.747375 728.591187,703.511475 
	C736.167725,700.243591 741.776978,695.028992 743.045532,686.423035 
	C744.423706,677.073792 740.868103,669.351501 733.170654,664.476013 
	C728.133118,661.285156 721.970398,658.519287 716.154053,658.167297 
	C699.882385,657.182739 683.528748,657.546753 667.207153,657.414612 
	C666.809814,657.411377 666.409119,657.830078 665.961060,658.079163 
	C673.704468,664.192017 673.685242,664.192017 673.678101,675.056763 
	C673.664551,695.553467 673.683105,716.050232 673.671875,736.546936 
	C673.668335,742.999756 674.441772,749.854004 666.069153,752.658447 
	C676.127136,752.658447 686.185059,752.658447 695.586914,752.658447 
	C693.406494,749.948181 689.451111,747.300171 689.288330,744.436707 
	C688.583374,732.031250 688.986328,719.562866 688.986328,707.220398 
	C694.918213,705.661377 698.827271,706.930725 702.170837,712.297607 
	C708.324951,722.175781 715.405579,731.475159 722.055115,741.047119 
	C724.790039,744.984070 727.798279,749.006042 721.620850,752.592957 
	C732.032410,752.592957 742.122986,752.592957 751.787048,752.592957 
	C748.848022,750.211731 745.275818,748.308838 743.090942,745.373352 
	C734.245728,733.489502 725.829712,721.286316 717.249023,709.205444 
	C715.951965,707.379211 715.873230,706.142212 719.496582,706.062500 
M201.061401,658.068604 
	C204.420044,659.983765 209.379807,661.136963 210.743240,664.001709 
	C212.560410,667.819824 211.580872,672.969055 211.807892,677.654785 
	C215.070236,677.654785 219.476868,677.654785 223.919189,677.654785 
	C226.068848,671.399902 223.476837,667.017761 219.169983,663.322388 
	C208.650543,654.296448 190.815231,653.596863 179.571060,661.749390 
	C173.199539,666.369080 170.713821,672.794617 171.349213,680.484741 
	C172.011322,688.498413 175.859482,694.816833 182.648651,698.923584 
	C187.888794,702.093445 193.699722,704.304199 199.070068,707.278564 
	C204.561447,710.320129 210.550232,712.998474 215.040710,717.203308 
	C225.006851,726.535767 222.083679,742.705566 209.780701,748.575439 
	C201.549332,752.502625 192.964172,752.631531 184.642181,748.783691 
	C174.580582,744.131592 172.515244,732.291626 180.101044,724.221680 
	C181.566620,722.662598 183.745392,721.114746 184.065201,719.293152 
	C184.538177,716.598999 184.482681,713.030884 183.007950,711.074036 
	C182.147491,709.932373 177.411530,710.287109 175.617874,711.602783 
	C172.839600,713.640686 170.310333,716.768372 169.041718,719.974670 
	C165.104538,729.925476 169.751328,742.437927 179.743256,748.541321 
	C192.888870,756.571228 206.661880,756.665466 220.168396,749.542297 
	C232.084564,743.257812 237.398026,730.264465 234.014709,717.253357 
	C231.429367,707.310974 223.970261,701.925354 215.336945,697.754089 
	C207.557541,693.995300 199.475708,690.781433 191.995026,686.508423 
	C184.600494,682.284546 181.846878,675.379761 183.664917,668.927429 
	C185.593704,662.082031 191.447601,658.227661 201.061401,658.068604 
M398.329132,696.500732 
	C398.329132,687.017090 398.329132,677.533447 398.329132,668.049805 
	C398.774933,667.954102 399.220734,667.858459 399.666534,667.762817 
	C419.868347,696.242432 440.070160,724.722046 460.271973,753.201660 
	C461.481049,751.110413 461.698212,749.513245 461.698242,747.916077 
	C461.698822,723.765686 461.651031,699.615356 461.662292,675.464966 
	C461.665466,668.650513 460.099884,661.097168 469.087006,657.861816 
	C463.421051,657.861816 457.755066,657.861816 452.089081,657.861816 
	C459.818787,660.502441 459.681549,666.692017 459.681671,672.821289 
	C459.682068,688.645142 459.699707,704.468933 459.685272,720.292786 
	C459.684143,721.538818 459.488159,722.784790 459.297455,725.039246 
	C457.801971,723.234131 456.841187,722.215393 456.038422,721.084534 
	C441.873718,701.130554 427.736603,681.157104 413.559845,661.211731 
	C412.613922,659.880920 411.444672,657.730530 410.300842,657.678284 
	C403.149994,657.351624 395.976807,657.513428 387.455963,657.513428 
	C396.328491,662.676636 396.331726,662.676636 396.350891,672.439880 
	C396.393372,694.093201 396.465515,715.746460 396.451599,737.399780 
	C396.447632,743.556519 397.059601,750.160950 388.867676,752.641296 
	C394.564514,752.641296 400.261353,752.641296 405.958191,752.641296 
	C397.508636,749.849548 398.372803,742.916504 398.349792,736.478271 
	C398.303345,723.485962 398.331635,710.493286 398.329132,696.500732 
M795.077393,718.500000 
	C795.077393,698.888245 795.077393,679.276428 795.077393,660.039673 
	C813.329041,655.351196 819.789124,666.359497 824.346985,680.325623 
	C824.346985,672.807373 824.346985,665.289185 824.346985,657.513977 
	C799.740356,657.513977 775.499695,657.513977 751.234131,657.513977 
	C751.234131,665.317810 751.234131,672.864990 751.234131,681.886108 
	C758.614197,658.466919 765.435120,657.989990 780.076660,659.867188 
	C780.076660,661.605164 780.076843,663.407532 780.076660,665.209961 
	C780.074219,688.706360 780.093750,712.202759 780.054993,735.699097 
	C780.044006,742.333435 781.705322,749.791809 772.604919,752.634033 
	C782.677734,752.634033 792.750610,752.634033 802.823486,752.634033 
	C794.858215,749.858093 794.943726,743.475037 795.052673,736.996948 
	C795.150696,731.166138 795.076111,725.332458 795.077393,718.500000 
M509.420135,509.966492 
	C523.788025,517.158997 539.057312,521.592163 554.720276,524.860046 
	C557.957947,525.535522 559.910156,524.950989 559.662781,520.945923 
	C558.784424,520.603943 557.903381,520.182373 556.978149,519.912415 
	C540.748352,515.177551 526.134949,507.658722 514.285828,495.309509 
	C513.533203,494.525055 512.416870,493.597595 511.455994,493.582001 
	C503.103210,493.446136 494.747253,493.503662 486.392242,493.503662 
	C486.168945,494.087891 485.945679,494.672119 485.722382,495.256348 
	C493.405182,500.041687 501.087982,504.826996 509.420135,509.966492 
z"/>
<path fill="#764A86" opacity="1.000000" stroke="none" 
	d="
M1.000000,905.500000 
	C425.137299,905.000916 849.274597,905.002014 1273.411865,905.001465 
	C1279.996826,905.001465 1280.004883,904.992065 1280.004883,897.874878 
	C1280.005981,599.229004 1280.005493,300.583160 1280.002686,1.468646 
	C1280.333374,1.166543 1280.943970,1.315669 1280.955566,1.502438 
	C1281.039062,2.830232 1281.000000,4.165714 1281.000000,5.498743 
	C1281.000000,305.596802 1281.000000,605.694824 1281.000000,906.000000 
	C854.333374,906.000000 427.666687,906.000000 1.000000,905.500000 
z"/>
<path fill="#FDFCFD" opacity="1.000000" stroke="none" 
	d="
M671.000000,262.035980 
	C697.622009,262.035858 723.744019,262.035858 749.866028,262.035858 
	C750.043701,262.537079 750.221375,263.038269 750.399048,263.539490 
	C749.343323,264.088196 748.337341,264.949615 747.222595,265.126801 
	C743.938782,265.648682 740.574524,265.695251 737.308899,266.294067 
	C726.973083,268.189331 719.114380,273.971588 714.356567,283.130127 
	C710.159790,291.208557 706.472412,299.656433 703.554260,308.277710 
	C680.031677,377.771729 656.745850,447.345856 633.384277,516.894348 
	C626.179504,538.343445 618.958008,559.786987 611.767456,581.240845 
	C611.308838,582.609009 611.052490,584.044983 610.679932,585.538147 
	C668.258789,589.199768 719.258606,575.951172 758.440674,531.206726 
	C778.053040,508.810150 789.478577,482.544098 793.138000,452.951569 
	C793.318237,451.494293 793.613037,450.051178 793.908386,448.277924 
	C795.963196,448.503479 797.739807,448.698486 800.163757,448.964600 
	C798.692505,454.923279 797.328552,460.672455 795.851624,466.392517 
	C785.784485,505.382263 775.625366,544.348511 765.708130,583.376282 
	C764.628174,587.626404 763.070251,589.125122 758.480347,589.117004 
	C673.840759,588.967834 589.200867,589.026001 504.561035,588.989197 
	C502.691589,588.988403 500.822388,588.388794 498.953094,588.068481 
	C499.069702,587.486023 499.186279,586.903564 499.302887,586.321106 
	C505.058472,585.934204 510.816437,585.579590 516.569153,585.153809 
	C529.294495,584.212036 538.702332,577.861389 545.780334,567.474548 
	C555.020752,553.914124 559.714661,538.425781 564.886353,523.139587 
	C588.398926,453.641846 611.980042,384.166840 635.226868,314.580200 
	C638.413635,305.040924 640.688293,295.019440 641.877380,285.041534 
	C643.004639,275.582336 638.119629,270.095673 628.742676,267.965637 
	C624.719421,267.051697 620.505493,266.748901 616.366455,266.646790 
	C613.188538,266.568390 612.034729,265.600342 613.274231,262.036102 
	C632.242065,262.036102 651.371033,262.036102 671.000000,262.035980 
z"/>
<path fill="#FDFCFD" opacity="1.000000" stroke="none" 
	d="
M567.870972,157.956558 
	C601.840515,149.482361 635.387268,147.659454 667.563354,162.503250 
	C701.984924,178.382919 727.610962,203.376984 740.875366,239.728989 
	C742.916870,245.324005 745.068970,250.878662 747.473938,257.258331 
	C743.575562,257.258331 740.319763,257.258301 737.063965,257.258301 
	C733.753845,257.258301 730.443787,257.258331 727.640259,257.258331 
	C724.976074,247.438492 723.187622,237.888840 719.816467,228.935074 
	C705.524719,190.976532 673.054016,159.296127 621.001465,158.862930 
	C603.804810,158.719803 587.089966,160.297821 571.689148,168.880569 
	C548.329041,181.898941 537.076050,214.552979 548.347046,237.143478 
	C553.325867,247.122574 561.466614,254.249542 570.340759,260.581451 
	C589.152710,274.004364 610.138428,283.449371 630.957458,293.134338 
	C635.106079,295.064270 635.686218,296.919952 634.298950,301.011139 
	C624.852051,328.870850 615.632141,356.807556 606.154114,385.274475 
	C601.472900,383.146149 597.274719,381.263458 593.098145,379.334290 
	C566.495483,367.046448 539.651062,355.190735 515.845337,337.727448 
	C499.888306,326.021698 485.947021,312.346649 479.152039,293.312469 
	C468.392273,263.172272 473.599396,234.770462 491.327789,208.741241 
	C508.349976,183.748840 532.964539,169.045609 561.231018,159.844055 
	C563.288818,159.174179 565.386597,158.627243 567.870972,157.956558 
z"/>
<path fill="#FDFCFD" opacity="1.000000" stroke="none" 
	d="
M660.607422,517.670349 
	C685.771912,503.981110 698.181519,476.932373 691.129456,451.553528 
	C688.218201,441.076721 681.798767,432.852234 673.785828,425.867767 
	C671.192627,423.607422 670.837524,421.791107 671.917175,418.637573 
	C681.236145,391.418793 690.366394,364.135345 699.566895,336.875916 
	C700.085876,335.338318 700.727844,333.842285 701.493591,331.857727 
	C729.842773,350.715973 754.101318,372.151917 759.388794,407.843109 
	C763.596741,436.247528 754.425598,460.741333 735.718079,481.852356 
	C715.272644,504.924561 689.096558,518.482727 659.627563,526.122437 
	C651.625183,528.197083 643.431030,529.532166 634.970215,531.279907 
	C634.601562,527.651123 635.932983,526.542664 638.765320,525.639648 
	C646.028015,523.324158 653.123108,520.482666 660.607422,517.670349 
z"/>
<path fill="#F8F4F9" opacity="1.000000" stroke="none" 
	d="
M719.059937,706.112915 
	C715.873230,706.142212 715.951965,707.379211 717.249023,709.205444 
	C725.829712,721.286316 734.245728,733.489502 743.090942,745.373352 
	C745.275818,748.308838 748.848022,750.211731 751.787048,752.592957 
	C742.122986,752.592957 732.032410,752.592957 721.620850,752.592957 
	C727.798279,749.006042 724.790039,744.984070 722.055115,741.047119 
	C715.405579,731.475159 708.324951,722.175781 702.170837,712.297607 
	C698.827271,706.930725 694.918213,705.661377 688.986328,707.220398 
	C688.986328,719.562866 688.583374,732.031250 689.288330,744.436707 
	C689.451111,747.300171 693.406494,749.948181 695.586914,752.658447 
	C686.185059,752.658447 676.127136,752.658447 666.069153,752.658447 
	C674.441772,749.854004 673.668335,742.999756 673.671875,736.546936 
	C673.683105,716.050232 673.664551,695.553467 673.678101,675.056763 
	C673.685242,664.192017 673.704468,664.192017 665.961060,658.079163 
	C666.409119,657.830078 666.809814,657.411377 667.207153,657.414612 
	C683.528748,657.546753 699.882385,657.182739 716.154053,658.167297 
	C721.970398,658.519287 728.133118,661.285156 733.170654,664.476013 
	C740.868103,669.351501 744.423706,677.073792 743.045532,686.423035 
	C741.776978,695.028992 736.167725,700.243591 728.591187,703.511475 
	C725.725952,704.747375 722.537659,705.234192 719.059937,706.112915 
M713.418274,704.262451 
	C723.772583,701.651794 729.791626,693.671875 729.688110,682.692261 
	C729.581238,671.357605 722.378601,661.814392 711.644104,660.163818 
	C704.346558,659.041687 696.844116,659.252136 689.212158,658.855103 
	C688.992737,660.745728 688.753479,661.857422 688.751404,662.969543 
	C688.725708,676.727234 688.734680,690.484924 688.734680,704.524536 
	C697.067627,704.524536 704.837524,704.524536 713.418274,704.262451 
z"/>
<path fill="#F9F6FA" opacity="1.000000" stroke="none" 
	d="
M475.856873,750.738831 
	C479.419525,747.855469 480.173096,744.013489 480.151855,739.627075 
	C480.043823,717.308044 480.050934,694.988037 480.135040,672.668762 
	C480.158569,666.425781 480.298431,660.335693 470.519379,658.708313 
	C472.985840,657.812622 473.641907,657.367004 474.298431,657.366394 
	C488.450104,657.352417 502.605713,657.186523 516.752502,657.462891 
	C536.534241,657.849365 551.666931,666.334839 559.166199,685.075378 
	C567.026306,704.717651 565.168945,723.671265 551.140259,740.315247 
	C544.140564,748.619812 534.675659,752.459290 523.436890,752.631775 
	C523.002441,751.838745 522.999084,751.413452 523.330933,750.851074 
	C531.994812,748.462219 537.328064,742.734375 540.923279,735.300110 
	C547.791687,721.097168 548.886414,706.148743 545.133667,691.011169 
	C537.543518,660.393921 519.552795,657.032532 495.375183,659.866821 
	C495.289978,660.597107 495.116669,661.391602 495.116302,662.186157 
	C495.104065,688.498596 495.109314,714.810974 495.109283,741.123413 
	C495.109253,745.209045 496.426392,748.615540 500.061188,751.183716 
	C500.027863,751.989624 500.002502,752.449890 499.977112,752.910217 
	C497.278961,752.955383 494.580811,753.000610 491.216919,752.803711 
	C489.700409,752.675293 488.849609,752.789062 487.998810,752.902771 
	C484.636292,752.945190 481.273773,752.987610 477.310059,752.689697 
	C476.424896,751.812439 476.140869,751.275635 475.856873,750.738831 
z"/>
<path fill="#F8F3F8" opacity="1.000000" stroke="none" 
	d="
M200.648926,658.042480 
	C191.447601,658.227661 185.593704,662.082031 183.664917,668.927429 
	C181.846878,675.379761 184.600494,682.284546 191.995026,686.508423 
	C199.475708,690.781433 207.557541,693.995300 215.336945,697.754089 
	C223.970261,701.925354 231.429367,707.310974 234.014709,717.253357 
	C237.398026,730.264465 232.084564,743.257812 220.168396,749.542297 
	C206.661880,756.665466 192.888870,756.571228 179.743256,748.541321 
	C169.751328,742.437927 165.104538,729.925476 169.041718,719.974670 
	C170.310333,716.768372 172.839600,713.640686 175.617874,711.602783 
	C177.411530,710.287109 182.147491,709.932373 183.007950,711.074036 
	C184.482681,713.030884 184.538177,716.598999 184.065201,719.293152 
	C183.745392,721.114746 181.566620,722.662598 180.101044,724.221680 
	C172.515244,732.291626 174.580582,744.131592 184.642181,748.783691 
	C192.964172,752.631531 201.549332,752.502625 209.780701,748.575439 
	C222.083679,742.705566 225.006851,726.535767 215.040710,717.203308 
	C210.550232,712.998474 204.561447,710.320129 199.070068,707.278564 
	C193.699722,704.304199 187.888794,702.093445 182.648651,698.923584 
	C175.859482,694.816833 172.011322,688.498413 171.349213,680.484741 
	C170.713821,672.794617 173.199539,666.369080 179.571060,661.749390 
	C190.815231,653.596863 208.650543,654.296448 219.169983,663.322388 
	C223.476837,667.017761 226.068848,671.399902 223.919189,677.654785 
	C219.476868,677.654785 215.070236,677.654785 211.807892,677.654785 
	C211.580872,672.969055 212.560410,667.819824 210.743240,664.001709 
	C209.379807,661.136963 204.420044,659.983765 200.648926,658.042480 
z"/>
<path fill="#F2EBF4" opacity="1.000000" stroke="none" 
	d="
M398.329102,697.000732 
	C398.331635,710.493286 398.303345,723.485962 398.349792,736.478271 
	C398.372803,742.916504 397.508636,749.849548 405.958191,752.641296 
	C400.261353,752.641296 394.564514,752.641296 388.867676,752.641296 
	C397.059601,750.160950 396.447632,743.556519 396.451599,737.399780 
	C396.465515,715.746460 396.393372,694.093201 396.350891,672.439880 
	C396.331726,662.676636 396.328491,662.676636 387.455963,657.513428 
	C395.976807,657.513428 403.149994,657.351624 410.300842,657.678284 
	C411.444672,657.730530 412.613922,659.880920 413.559845,661.211731 
	C427.736603,681.157104 441.873718,701.130554 456.038422,721.084534 
	C456.841187,722.215393 457.801971,723.234131 459.297455,725.039246 
	C459.488159,722.784790 459.684143,721.538818 459.685272,720.292786 
	C459.699707,704.468933 459.682068,688.645142 459.681671,672.821289 
	C459.681549,666.692017 459.818787,660.502441 452.089081,657.861816 
	C457.755066,657.861816 463.421051,657.861816 469.087006,657.861816 
	C460.099884,661.097168 461.665466,668.650513 461.662292,675.464966 
	C461.651031,699.615356 461.698822,723.765686 461.698242,747.916077 
	C461.698212,749.513245 461.481049,751.110413 460.271973,753.201660 
	C440.070160,724.722046 419.868347,696.242432 399.666534,667.762817 
	C399.220734,667.858459 398.774933,667.954102 398.329132,668.049805 
	C398.329132,677.533447 398.329132,687.017090 398.329102,697.000732 
z"/>
<path fill="#F9F5F9" opacity="1.000000" stroke="none" 
	d="
M1071.911499,700.005371 
	C1071.916382,700.704102 1071.921265,701.402832 1072.103027,702.688477 
	C1072.523560,703.515198 1072.767334,703.754944 1073.011108,703.994690 
	C1079.266479,713.192200 1085.551392,722.369873 1091.768433,731.593323 
	C1097.385498,739.926636 1102.563110,748.685791 1112.915283,752.612793 
	C1100.562134,752.612793 1088.208862,752.612793 1075.691772,752.612793 
	C1077.616821,750.713257 1080.770508,748.996826 1080.744141,747.330505 
	C1080.693115,744.084534 1079.424561,740.512634 1077.661377,737.702576 
	C1072.102417,728.843750 1066.081299,720.274963 1060.029907,710.931396 
	C1059.055420,709.796936 1058.290161,709.325134 1057.524902,708.853271 
	C1057.625488,708.549866 1057.664551,708.238708 1057.618652,707.417603 
	C1057.333130,706.648865 1057.071167,706.382385 1056.809082,706.115906 
	C1056.809082,706.115906 1056.886108,706.118835 1056.813721,705.905151 
	C1056.501587,705.458008 1056.261841,705.224609 1056.022095,704.991211 
	C1050.020020,696.210876 1043.871094,687.526489 1038.057129,678.623291 
	C1032.261719,669.748413 1026.178589,661.361633 1015.146851,657.923462 
	C1028.109009,657.923462 1041.071167,657.923462 1053.340698,657.923462 
	C1051.962402,660.188538 1049.213867,662.696167 1049.246338,665.167358 
	C1049.285522,668.169189 1051.370850,671.328247 1053.101440,674.086426 
	C1056.898804,680.138245 1061.030396,685.980408 1065.188232,692.521423 
	C1065.627319,693.412598 1065.903809,693.690491 1066.180298,693.968384 
	C1066.180298,693.968384 1066.390747,694.055786 1066.449829,694.481445 
	C1066.792480,695.207520 1067.076050,695.507935 1067.359619,695.808350 
	C1067.787109,696.285339 1068.214478,696.762268 1068.777832,697.840454 
	C1069.913086,698.962891 1070.912231,699.484131 1071.911499,700.005371 
z"/>
<path fill="#F8F3F8" opacity="1.000000" stroke="none" 
	d="
M795.077515,719.000000 
	C795.076111,725.332458 795.150696,731.166138 795.052673,736.996948 
	C794.943726,743.475037 794.858215,749.858093 802.823486,752.634033 
	C792.750610,752.634033 782.677734,752.634033 772.604919,752.634033 
	C781.705322,749.791809 780.044006,742.333435 780.054993,735.699097 
	C780.093750,712.202759 780.074219,688.706360 780.076660,665.209961 
	C780.076843,663.407532 780.076660,661.605164 780.076660,659.867188 
	C765.435120,657.989990 758.614197,658.466919 751.234131,681.886108 
	C751.234131,672.864990 751.234131,665.317810 751.234131,657.513977 
	C775.499695,657.513977 799.740356,657.513977 824.346985,657.513977 
	C824.346985,665.289185 824.346985,672.807373 824.346985,680.325623 
	C819.789124,666.359497 813.329041,655.351196 795.077393,660.039673 
	C795.077393,679.276428 795.077393,698.888245 795.077515,719.000000 
z"/>
<path fill="#F9F5F9" opacity="1.000000" stroke="none" 
	d="
M275.027283,752.901062 
	C274.564178,752.942871 274.101044,752.984741 272.942963,752.754761 
	C268.774170,752.336182 265.282104,752.356201 261.833588,751.978455 
	C259.865601,751.762817 257.968628,750.898804 256.039673,750.326782 
	C256.698944,749.708069 257.358215,749.089355 258.556091,748.103455 
	C259.308136,746.965088 259.521576,746.194031 259.734985,745.422913 
	C259.805725,717.288574 259.878448,689.154236 259.930481,661.019836 
	C259.931335,660.548462 259.680786,660.076599 259.553894,659.627380 
	C245.837677,658.622009 239.268326,656.979797 231.130463,681.850647 
	C231.130463,672.914246 231.130463,665.347412 231.130463,657.546875 
	C255.430725,657.546875 279.646210,657.546875 304.144653,657.546875 
	C304.144653,665.351807 304.144653,672.897217 304.144653,680.442627 
	C299.763367,666.290344 293.249512,655.452148 275.204041,659.975769 
	C275.204041,687.977051 275.204041,716.241211 275.218231,745.258301 
	C275.694214,746.690063 276.155975,747.368958 276.617767,748.047913 
	C277.024841,748.441467 277.431915,748.834961 278.000549,749.761841 
	C277.117188,751.163818 276.072235,752.032471 275.027283,752.901062 
z"/>
<path fill="#FAF6FA" opacity="1.000000" stroke="none" 
	d="
M601.082947,664.209412 
	C601.778625,662.008179 602.474304,659.806885 603.132874,657.723145 
	C614.008057,656.663513 614.002808,656.665649 617.853088,666.135742 
	C627.067566,688.799500 636.333740,711.442444 645.480835,734.133301 
	C648.822144,742.421814 652.892517,749.851807 662.635681,752.486145 
	C650.067383,752.486145 637.499084,752.486145 624.258911,752.486145 
	C633.138977,747.459778 633.792664,745.413025 630.012207,735.866028 
	C628.235352,731.378601 626.394348,726.916504 624.243042,721.951416 
	C623.663269,720.984863 623.422729,720.509888 623.164062,719.653564 
	C616.434204,702.484802 609.722595,685.697266 602.974182,668.583557 
	C602.319275,666.908081 601.701111,665.558777 601.082947,664.209412 
z"/>
<path fill="#FAF6FA" opacity="1.000000" stroke="none" 
	d="
M324.702209,662.406494 
	C325.285583,660.126892 324.907349,656.970398 328.718384,657.411682 
	C332.433655,657.841980 336.651794,655.581177 338.954590,661.466614 
	C347.913208,684.362976 357.457916,707.029541 366.712799,729.810730 
	C372.888428,745.012085 372.834106,745.034180 386.233154,752.646240 
	C372.909729,752.646240 360.361267,752.646240 346.722900,752.646240 
	C348.001831,751.673767 348.385925,751.211182 348.873047,751.037537 
	C354.352295,749.083679 356.306915,746.248047 354.501526,740.882935 
	C352.346619,734.479187 349.375000,728.350342 346.476379,721.671936 
	C346.128815,720.867432 346.062073,720.493469 346.022125,719.735474 
	C339.360565,702.569519 332.672180,685.787598 325.960388,668.667603 
	C325.525391,666.355164 325.113800,664.380798 324.702209,662.406494 
z"/>
<path fill="#FBF7FB" opacity="1.000000" stroke="none" 
	d="
M879.004639,752.858154 
	C877.606628,752.916382 876.208557,752.974670 874.177368,752.782104 
	C872.698608,752.645508 871.852905,752.759705 871.007263,752.873901 
	C868.295593,752.920837 865.583862,752.967834 862.233521,752.736450 
	C861.059021,751.962463 860.523193,751.466797 859.987427,750.971130 
	C863.844116,748.674133 865.056702,745.147583 865.046265,740.834534 
	C864.988892,717.176270 864.977844,693.517639 865.050720,669.859497 
	C865.068054,664.236084 863.178711,660.171509 857.368042,657.987671 
	C867.456360,657.987671 877.544617,657.987671 887.632874,657.987671 
	C879.075256,660.811707 880.016907,667.815552 880.027161,674.488831 
	C880.065674,699.646545 880.031982,724.804321 879.913940,750.672119 
	C879.536499,751.874084 879.270569,752.366089 879.004639,752.858154 
z"/>
<path fill="#F9F5F9" opacity="1.000000" stroke="none" 
	d="
M956.354187,753.187378 
	C955.319336,752.967407 954.284485,752.747375 952.923584,752.302368 
	C952.597473,752.077393 952.690125,752.046692 952.690125,752.046692 
	C952.260498,751.944641 951.830811,751.842529 950.959106,751.266418 
	C949.929871,750.602661 949.342712,750.413025 948.755493,750.223389 
	C948.755493,750.223389 948.860229,750.190796 948.690552,749.987183 
	C947.956726,749.545532 947.392578,749.307617 946.828430,749.069702 
	C934.890320,742.197388 931.408630,730.862671 931.139221,718.208740 
	C930.813110,702.892700 930.926025,687.563538 931.089233,672.242615 
	C931.155518,666.016418 930.592712,660.497559 923.388245,657.912231 
	C933.504150,657.912231 943.619995,657.912231 953.735840,657.912231 
	C944.903503,660.664429 946.071655,667.882996 946.061096,674.503174 
	C946.036682,689.825989 945.967529,705.149414 946.082703,720.471375 
	C946.200806,736.177917 953.379333,747.000793 966.650879,752.044617 
	C966.253784,753.291931 965.631653,754.051331 965.009521,754.810791 
	C963.242981,754.598938 961.476440,754.387085 959.057861,753.853149 
	C957.721985,753.416504 957.038086,753.301941 956.354187,753.187378 
z"/>
<path fill="#F8F3F8" opacity="1.000000" stroke="none" 
	d="
M509.095459,509.789429 
	C501.087982,504.826996 493.405182,500.041687 485.722382,495.256348 
	C485.945679,494.672119 486.168945,494.087891 486.392242,493.503662 
	C494.747253,493.503662 503.103210,493.446136 511.455994,493.582001 
	C512.416870,493.597595 513.533203,494.525055 514.285828,495.309509 
	C526.134949,507.658722 540.748352,515.177551 556.978149,519.912415 
	C557.903381,520.182373 558.784424,520.603943 559.662781,520.945923 
	C559.910156,524.950989 557.957947,525.535522 554.720276,524.860046 
	C539.057312,521.592163 523.788025,517.158997 509.095459,509.789429 
z"/>
<path fill="#ECD9EF" opacity="1.000000" stroke="none" 
	d="
M324.448730,662.667969 
	C325.113800,664.380798 325.525391,666.355164 325.579468,668.538635 
	C324.796143,669.149719 324.144073,669.474609 323.977325,669.964661 
	C318.313385,686.608459 312.695526,703.267883 307.020294,720.246033 
	C306.963257,720.999939 306.956970,721.432922 306.950653,721.865906 
	C304.522125,728.840515 301.666443,735.703613 299.807465,742.826843 
	C298.451141,748.024109 302.159882,750.590210 307.186340,751.495178 
	C307.078156,752.032776 306.969971,752.570435 306.861786,753.108093 
	C296.510651,753.108093 286.159485,753.108093 275.417816,753.004639 
	C276.072235,752.032471 277.117188,751.163818 278.130249,750.014648 
	C286.260132,752.719788 293.914215,748.996887 297.666809,739.513184 
	C301.139496,730.736938 303.968445,721.705017 307.048187,712.774475 
	C312.776428,696.163757 318.480896,679.544861 324.448730,662.667969 
z"/>
<path fill="#F2EBF4" opacity="1.000000" stroke="none" 
	d="
M1000.324341,666.953491 
	C998.215088,664.072632 996.105896,661.191772 994.073547,658.415894 
	C998.505676,658.415894 1003.972473,658.415894 1011.131775,658.415894 
	C1000.746765,661.205566 1002.165405,668.149536 1002.278564,675.100586 
	C1002.541443,691.252319 1002.689636,707.436890 1001.951721,723.565491 
	C1001.164490,740.773682 990.689270,752.045471 974.360596,754.130249 
	C973.978699,753.330017 973.981750,752.827759 973.984741,752.325439 
	C989.188843,749.992249 998.920776,740.356689 999.818115,724.635620 
	C1000.774170,707.886597 1000.348328,691.058655 1000.520386,674.265137 
	C1000.537476,672.601990 1000.516602,670.938477 1000.632812,668.581238 
	C1000.609680,667.576050 1000.467041,667.264771 1000.324341,666.953491 
z"/>
<path fill="#E4CCE8" opacity="1.000000" stroke="none" 
	d="
M600.886719,664.494385 
	C601.701111,665.558777 602.319275,666.908081 602.591187,668.509155 
	C601.731140,669.540344 601.025024,670.253845 600.732056,671.108948 
	C595.170837,687.341614 589.658325,703.591003 584.087891,720.178772 
	C584.019287,720.980347 583.998413,721.440063 583.977539,721.899780 
	C581.687866,728.041992 579.398193,734.184265 576.730835,740.524780 
	C575.885742,740.473694 575.418274,740.224365 574.950745,739.975037 
	C583.530701,714.909790 592.110657,689.844543 600.886719,664.494385 
z"/>
<path fill="#F2EBF4" opacity="1.000000" stroke="none" 
	d="
M879.461548,752.968140 
	C879.270569,752.366089 879.536499,751.874084 879.930176,751.133179 
	C888.193726,750.944702 896.330017,750.973633 904.465271,751.076965 
	C909.532654,751.141357 911.881531,747.593994 913.547729,743.777405 
	C915.438660,739.445801 916.632385,734.809753 918.656433,730.320068 
	C918.656433,737.722412 918.656433,745.124756 918.656433,753.078064 
	C905.721008,753.078064 892.819763,753.078064 879.461548,752.968140 
z"/>
<path fill="#ECD9EF" opacity="1.000000" stroke="none" 
	d="
M1094.776001,669.540405 
	C1097.372559,664.047241 1095.886597,660.294067 1088.931030,658.872192 
	C1089.292480,658.524902 1089.653931,658.177612 1090.015381,657.830322 
	C1097.933228,657.830322 1105.851074,657.830322 1113.337402,657.830322 
	C1107.850708,662.038879 1102.224854,666.354248 1096.074707,670.631836 
	C1095.292358,670.242920 1095.034180,669.891663 1094.776001,669.540405 
z"/>
<path fill="#F2EBF4" opacity="1.000000" stroke="none" 
	d="
M1032.193848,741.299805 
	C1030.245605,747.822998 1030.456787,748.275940 1038.274902,752.504761 
	C1029.252808,752.504761 1021.358337,752.504761 1012.938232,752.504761 
	C1017.280151,749.840637 1021.133118,747.476562 1025.555420,744.856079 
	C1026.371216,744.305359 1026.617676,744.010986 1026.864014,743.716553 
	C1028.002197,742.538452 1029.140381,741.360291 1030.809570,740.244995 
	C1031.625122,740.638489 1031.909424,740.969177 1032.193848,741.299805 
z"/>
<path fill="#F2EBF4" opacity="1.000000" stroke="none" 
	d="
M574.849976,740.079956 
	C575.418274,740.224365 575.885742,740.473694 576.578979,740.863037 
	C576.193298,746.517761 577.385681,750.927856 584.878662,751.479797 
	C584.475769,751.861938 584.072815,752.244080 583.669861,752.626221 
	C575.845032,752.626221 568.020142,752.626221 560.627869,752.626221 
	C564.477722,749.877380 568.362122,747.103882 572.744507,743.920593 
	C573.402161,743.128784 573.561768,742.746826 573.721375,742.364868 
	C573.721375,742.364868 573.707275,742.124756 574.029358,741.856689 
	C574.490112,741.217651 574.628784,740.846558 574.767456,740.475464 
	C574.767456,740.475464 574.749146,740.184937 574.849976,740.079956 
z"/>
<path fill="#E4CCE8" opacity="1.000000" stroke="none" 
	d="
M1032.469238,741.104614 
	C1031.909424,740.969177 1031.625122,740.638489 1031.084229,740.103638 
	C1039.545898,729.655945 1048.263916,719.412476 1057.253418,709.011108 
	C1058.290161,709.325134 1059.055420,709.796936 1059.916504,710.601807 
	C1058.929810,711.395569 1057.501953,711.561096 1056.817261,712.361938 
	C1048.728638,721.822815 1040.751343,731.378662 1032.469238,741.104614 
z"/>
<path fill="#E4CCE8" opacity="1.000000" stroke="none" 
	d="
M1094.499756,669.741638 
	C1095.034180,669.891663 1095.292358,670.242920 1095.796265,670.810547 
	C1088.198486,680.582214 1080.354980,690.137390 1072.211426,699.848999 
	C1070.912231,699.484131 1069.913086,698.962891 1068.882812,698.143738 
	C1070.178345,697.276184 1071.935181,697.067749 1072.764038,696.080322 
	C1080.011230,687.446838 1087.092773,678.674194 1094.499756,669.741638 
z"/>
<path fill="#C9A0D5" opacity="1.000000" stroke="none" 
	d="
M584.439209,721.990417 
	C583.998413,721.440063 584.019287,720.980347 584.538818,720.273438 
	C597.752380,720.029175 610.467346,720.032043 623.182251,720.034851 
	C623.422729,720.509888 623.663269,720.984863 623.952637,721.731445 
	C610.967957,722.028992 597.934448,722.054993 584.439209,721.990417 
z"/>
<path fill="#C9A0D5" opacity="1.000000" stroke="none" 
	d="
M307.415894,721.950867 
	C306.956970,721.432922 306.963257,720.999939 307.479279,720.316040 
	C320.657745,720.083191 333.326538,720.101318 345.995300,720.119446 
	C346.062073,720.493469 346.128815,720.867432 346.139557,721.524414 
	C333.349396,721.883606 320.615295,721.959717 307.415894,721.950867 
z"/>
<path fill="#ECD9EF" opacity="1.000000" stroke="none" 
	d="
M500.437805,753.012817 
	C500.002502,752.449890 500.027863,751.989624 500.525757,751.194824 
	C508.330780,750.902954 515.663269,750.945557 522.995789,750.988159 
	C522.999084,751.413452 523.002441,751.838745 523.017090,752.582886 
	C515.651733,752.972961 508.275116,753.044250 500.437805,753.012817 
z"/>
<path fill="#ECD9EF" opacity="1.000000" stroke="none" 
	d="
M255.687683,750.371460 
	C257.968628,750.898804 259.865601,751.762817 261.833588,751.978455 
	C265.282104,752.356201 268.774170,752.336182 272.599487,752.686279 
	C266.913055,752.975220 260.875275,753.072021 254.837112,753.132996 
	C254.041550,753.141052 253.244156,752.966919 252.073898,751.912415 
	C253.161163,751.413696 254.248444,750.914978 255.687683,750.371460 
z"/>
<path fill="#F2EBF4" opacity="1.000000" stroke="none" 
	d="
M965.438965,754.901367 
	C965.631653,754.051331 966.253784,753.291931 966.939941,752.240723 
	C968.080627,752.006897 969.157349,752.064880 970.681641,752.482788 
	C971.413391,753.473816 971.697571,754.104919 971.981750,754.736084 
	C969.943970,754.821350 967.906128,754.906677 965.438965,754.901367 
z"/>
<path fill="#ECD9EF" opacity="1.000000" stroke="none" 
	d="
M475.472473,750.769165 
	C476.140869,751.275635 476.424896,751.812439 476.857605,752.614380 
	C475.445526,752.879578 473.884735,752.879578 472.323944,752.879578 
	C472.237427,752.537598 472.150940,752.195618 472.064423,751.853699 
	C473.072296,751.502319 474.080200,751.150940 475.472473,750.769165 
z"/>
<path fill="#F9F5F9" opacity="1.000000" stroke="none" 
	d="
M972.332642,754.770996 
	C971.697571,754.104919 971.413391,753.473816 971.073120,752.588196 
	C971.760742,752.287109 972.504578,752.240479 973.616577,752.259644 
	C973.981750,752.827759 973.978699,753.330017 973.982361,754.083374 
	C973.553833,754.491638 973.118652,754.648804 972.332642,754.770996 
z"/>
<path fill="#F2EBF4" opacity="1.000000" stroke="none" 
	d="
M859.603882,750.956543 
	C860.523193,751.466797 861.059021,751.962463 861.788208,752.653381 
	C860.427490,752.848694 858.873474,752.848694 857.319397,752.848694 
	C857.249573,752.583862 857.179749,752.318970 857.109924,752.054138 
	C857.813354,751.683350 858.516785,751.312622 859.603882,750.956543 
z"/>
<path fill="#ECD9EF" opacity="1.000000" stroke="none" 
	d="
M259.518005,745.624817 
	C259.521576,746.194031 259.308136,746.965088 258.822449,747.892822 
	C258.800476,747.308472 259.050751,746.567627 259.518005,745.624817 
z"/>
<path fill="#ECD9EF" opacity="1.000000" stroke="none" 
	d="
M276.561646,747.747620 
	C276.155975,747.368958 275.694214,746.690063 275.278564,745.682495 
	C275.718323,746.051697 276.111938,746.749512 276.561646,747.747620 
z"/>
<path fill="#ECD9EF" opacity="1.000000" stroke="none" 
	d="
M488.366608,753.001221 
	C488.849609,752.789062 489.700409,752.675293 490.771667,752.733643 
	C490.239563,752.970398 489.487000,753.035095 488.366608,753.001221 
z"/>
<path fill="#F2EBF4" opacity="1.000000" stroke="none" 
	d="
M871.373291,752.969910 
	C871.852905,752.759705 872.698608,752.645508 873.764099,752.703125 
	C873.235718,752.938660 872.487549,753.002319 871.373291,752.969910 
z"/>
<path fill="#F2EBF4" opacity="1.000000" stroke="none" 
	d="
M956.623779,753.423950 
	C957.038086,753.301941 957.721985,753.416504 958.697388,753.724792 
	C958.290344,753.832581 957.591919,753.746582 956.623779,753.423950 
z"/>
<path fill="#F2EBF4" opacity="1.000000" stroke="none" 
	d="
M948.945740,750.476074 
	C949.342712,750.413025 949.929871,750.602661 950.713257,751.041626 
	C950.318298,751.103577 949.727173,750.916199 948.945740,750.476074 
z"/>
<path fill="#F2EBF4" opacity="1.000000" stroke="none" 
	d="
M946.987427,749.343872 
	C947.392578,749.307617 947.956726,749.545532 948.701660,750.040894 
	C948.303772,750.071472 947.725098,749.844788 946.987427,749.343872 
z"/>
<path fill="#E4CCE8" opacity="1.000000" stroke="none" 
	d="
M1026.578613,743.801636 
	C1026.617676,744.010986 1026.371216,744.305359 1025.856201,744.711792 
	C1025.822632,744.511414 1026.057861,744.199036 1026.578613,743.801636 
z"/>
<path fill="#E4CCE8" opacity="1.000000" stroke="none" 
	d="
M573.469177,742.557007 
	C573.561768,742.746826 573.402161,743.128784 572.997681,743.707886 
	C572.907532,743.519775 573.062256,743.134460 573.469177,742.557007 
z"/>
<path fill="#E4CCE8" opacity="1.000000" stroke="none" 
	d="
M574.526733,740.666138 
	C574.628784,740.846558 574.490112,741.217651 574.132935,741.795593 
	C574.038330,741.620605 574.162170,741.238708 574.526733,740.666138 
z"/>
<path fill="#E4CCE8" opacity="1.000000" stroke="none" 
	d="
M1056.857422,706.405090 
	C1057.071167,706.382385 1057.333130,706.648865 1057.672241,707.187378 
	C1057.468140,707.204346 1057.187012,706.949341 1056.857422,706.405090 
z"/>
<path fill="#E4CCE8" opacity="1.000000" stroke="none" 
	d="
M1056.060791,705.250122 
	C1056.261841,705.224609 1056.501587,705.458008 1056.797607,705.940125 
	C1056.602295,705.962219 1056.350952,705.735657 1056.060791,705.250122 
z"/>
<path fill="#F2EBF4" opacity="1.000000" stroke="none" 
	d="
M952.634766,752.003052 
	C952.690125,752.046692 952.597473,752.077393 952.589600,752.081909 
	C952.581665,752.086487 952.579468,751.959412 952.634766,752.003052 
z"/>
<path fill="#E4CCE8" opacity="1.000000" stroke="none" 
	d="
M1072.982300,703.720093 
	C1072.767334,703.754944 1072.523560,703.515198 1072.205078,703.027954 
	C1072.404663,703.002197 1072.679077,703.223816 1072.982300,703.720093 
z"/>
<path fill="#E4CCE8" opacity="1.000000" stroke="none" 
	d="
M1067.302979,695.497681 
	C1067.076050,695.507935 1066.792480,695.207520 1066.452148,694.595276 
	C1066.679077,694.584656 1066.962769,694.885864 1067.302979,695.497681 
z"/>
<path fill="#E4CCE8" opacity="1.000000" stroke="none" 
	d="
M1066.133545,693.666565 
	C1065.903809,693.690491 1065.627319,693.412598 1065.280029,692.844727 
	C1065.501831,692.824707 1065.794312,693.094727 1066.133545,693.666565 
z"/>
<path fill="#C9A0D5" opacity="1.000000" stroke="none" 
	d="
M1000.253906,667.204712 
	C1000.467041,667.264771 1000.609680,667.576050 1000.664551,668.138306 
	C1000.445618,668.078186 1000.314514,667.767029 1000.253906,667.204712 
z"/>
<path fill="#552868" opacity="1.000000" stroke="none" 
	d="
M713.012817,704.393494 
	C704.837524,704.524536 697.067627,704.524536 688.734680,704.524536 
	C688.734680,690.484924 688.725708,676.727234 688.751404,662.969543 
	C688.753479,661.857422 688.992737,660.745728 689.212158,658.855103 
	C696.844116,659.252136 704.346558,659.041687 711.644104,660.163818 
	C722.378601,661.814392 729.581238,671.357605 729.688110,682.692261 
	C729.791626,693.671875 723.772583,701.651794 713.012817,704.393494 
z"/>
<path fill="#542668" opacity="1.000000" stroke="none" 
	d="
M523.330933,750.851074 
	C515.663269,750.945557 508.330780,750.902954 500.533722,750.849243 
	C496.426392,748.615540 495.109253,745.209045 495.109283,741.123413 
	C495.109314,714.810974 495.104065,688.498596 495.116302,662.186157 
	C495.116669,661.391602 495.289978,660.597107 495.375183,659.866821 
	C519.552795,657.032532 537.543518,660.393921 545.133667,691.011169 
	C548.886414,706.148743 547.791687,721.097168 540.923279,735.300110 
	C537.328064,742.734375 531.994812,748.462219 523.330933,750.851074 
z"/>
<path fill="#552868" opacity="1.000000" stroke="none" 
	d="
M623.164062,719.653564 
	C610.467346,720.032043 597.752380,720.029175 584.586548,719.931641 
	C589.658325,703.591003 595.170837,687.341614 600.732056,671.108948 
	C601.025024,670.253845 601.731140,669.540344 602.627930,668.835327 
	C609.722595,685.697266 616.434204,702.484802 623.164062,719.653564 
z"/>
<path fill="#552868" opacity="1.000000" stroke="none" 
	d="
M346.022125,719.735474 
	C333.326538,720.101318 320.657745,720.083191 307.529999,719.995117 
	C312.695526,703.267883 318.313385,686.608459 323.977325,669.964661 
	C324.144073,669.474609 324.796143,669.149719 325.602844,668.876709 
	C332.672180,685.787598 339.360565,702.569519 346.022125,719.735474 
z"/>
</svg>